<?xml version="1.0" encoding="utf-8"?>
<!-- Generator: Adobe Illustrator 16.0.0, SVG Export Plug-In . SVG Version: 6.00 Build 0)  -->
<!DOCTYPE svg PUBLIC "-//W3C//DTD SVG 1.1//EN" "http://www.w3.org/Graphics/SVG/1.1/DTD/svg11.dtd">
<svg version="1.1" id="图层_1" xmlns="http://www.w3.org/2000/svg" xmlns:xlink="http://www.w3.org/1999/xlink" x="0px" y="0px"
	 width="500px" height="336px" viewBox="0 0 500 336" enable-background="new 0 0 500 336" xml:space="preserve">
<rect x="-3" y="-2" fill="#FAFAFA" width="519" height="21"/>
<rect x="-3" y="316" fill="#FAFAFA" width="519" height="21"/>
<g>
	<g>
		<path fill="#EFEFEF" d="M486,0H14C6.268,0,0,6.268,0,14v308c0,7.731,6.268,14,14,14h472c7.731,0,14-6.269,14-14V14
			C500,6.268,493.731,0,486,0z M478,308c0,3.313-2.687,6-6,6H27c-3.313,0-6-2.688-6-6V28c0-3.313,2.687-6,6-6h445
			c3.313,0,6,2.687,6,6V308z"/>
	</g>
</g>
</svg>
