<?xml version="1.0" standalone="no"?>
<!DOCTYPE svg PUBLIC "-//W3C//DTD SVG 1.1//EN" "http://www.w3.org/Graphics/SVG/1.1/DTD/svg11.dtd" >
<svg xmlns="http://www.w3.org/2000/svg" xmlns:xlink="http://www.w3.org/1999/xlink" version="1.1">
<metadata>
Created by FontForge 20161013 at Sun Apr 10 14:59:14 2016
 By ,,,
Copyright (c) 2004, 2012 Hoefler &#38; Frere-Jones. http://www.typography.com
</metadata>
<defs>
<font id="Tungsten-Book" horiz-adv-x="331" >
  <font-face 
    font-family="Tungsten"
    font-weight="400"
    font-stretch="normal"
    units-per-em="1000"
    panose-1="0 0 0 0 0 0 0 0 0 0"
    ascent="800"
    descent="-200"
    x-height="537"
    cap-height="700"
    bbox="-17 -200 644 862"
    underline-thickness="50"
    underline-position="-200"
    unicode-range="U+0020-FB04"
  />
<missing-glyph horiz-adv-x="500" 
d="M0 -200v1000h500v-1000h-500zM71 750l179 -390l179 390h-358zM50 -76l172 376l-172 376v-752zM450 676l-172 -376l172 -376v752zM250 240l-179 -390h358z" />
    <glyph glyph-name=".notdef" horiz-adv-x="500" 
d="M0 -200v1000h500v-1000h-500zM71 750l179 -390l179 390h-358zM50 -76l172 376l-172 376v-752zM450 676l-172 -376l172 -376v752zM250 240l-179 -390h358z" />
    <glyph glyph-name=".null" horiz-adv-x="0" 
 />
    <glyph glyph-name="nonmarkingreturn" horiz-adv-x="333" 
 />
    <glyph glyph-name="space" unicode=" " horiz-adv-x="120" 
 />
    <glyph glyph-name="exclam" unicode="!" horiz-adv-x="155" 
d="M106 473l-17 -292h-23l-18 292v227h58v-227zM107 100v-100h-59v100h59z" />
    <glyph glyph-name="quotedbl" unicode="&#x22;" horiz-adv-x="221" 
d="M98 700l-32 -239h-37l13 239h56zM199 700l-33 -239h-37l14 239h56z" />
    <glyph glyph-name="numbersign" unicode="#" horiz-adv-x="368" 
d="M285 702v-144l62 17v-61l-62 -16v-234l62 17v-60l-62 -17v-206h-54v191l-94 -25v-166h-54v151l-62 -16v60l62 16v234l-62 -16v60l62 16v199h54v-184l94 25v159h54zM137 458v-234l94 25v234z" />
    <glyph glyph-name="dollar" unicode="$" horiz-adv-x="348" 
d="M244 346q35 -26 49 -53.5t14 -71.5v-104q0 -114 -108 -120v-72h-49v72q-110 5 -110 118v143h59v-145q0 -62 65 -62h18q65 0 65 62v106q0 28 -9 44t-31 33l-103 77q-35 26 -49 54.5t-14 70.5v85q0 114 109 120v71h49v-71q106 -8 106 -118v-122h-59v124q0 62 -65 62h-15
q-65 0 -65 -62v-88q0 -27 9 -43.5t31 -33.5z" />
    <glyph glyph-name="percent" unicode="%" horiz-adv-x="473" 
d="M134 374h-16q-46 0 -65 22.5t-19 72.5v142q0 49 19 72t65 23h16q45 0 64 -23t19 -72v-142q0 -50 -18.5 -72.5t-64.5 -22.5zM339 319h16q46 0 64.5 -22.5t18.5 -71.5v-136q0 -50 -18.5 -72.5t-64.5 -22.5h-16q-45 0 -64 23t-19 72v136q0 49 19 71.5t64 22.5zM385 702
l-129 -365l-118 -339h-48l129 364l117 340h49zM131 657h-9q-23 0 -31 -11t-8 -39v-135q0 -27 8 -38t31 -11h10q22 0 29 10.5t7 38.5v135q0 28 -7 39t-30 11zM352 270h-10q-22 0 -29.5 -10.5t-7.5 -38.5v-128q0 -28 7 -39t30 -11h9q23 0 30.5 11t7.5 39v128q0 28 -7 38.5
t-30 10.5z" />
    <glyph glyph-name="ampersand" unicode="&#x26;" horiz-adv-x="399" 
d="M338 0l-57 106l-3 -9q-18 -58 -43.5 -80.5t-82.5 -22.5h-12q-111 0 -111 110v153q0 73 43 111l44 38l-24 45q-24 46 -24 103v38q0 114 114 114h19q113 0 113 -112v-108h-58v107q0 57 -59 57h-11q-59 0 -59 -57v-39q0 -44 17 -77l127 -242l54 173h56l-74 -232l96 -176h-65
zM163 50q25 0 37.5 13t22.5 44l20 60l-101 189l-25 -23q-30 -26 -30 -74v-155q0 -54 55 -54h21z" />
    <glyph glyph-name="quotesingle" unicode="'" horiz-adv-x="122" 
d="M100 700l-33 -239h-38l13 239h58z" />
    <glyph glyph-name="parenleft" unicode="(" horiz-adv-x="204" 
d="M187 -24l-38 -17q-64 66 -83 117.5t-19 164.5v218q0 113 19 164.5t83 117.5l38 -17q-55 -70 -70.5 -116t-15.5 -148v-220q0 -102 15.5 -148t70.5 -116z" />
    <glyph glyph-name="parenright" unicode=")" horiz-adv-x="204" 
d="M16 724l38 17q64 -66 83.5 -118t19.5 -164v-218q0 -112 -19.5 -164t-83.5 -118l-38 17q55 70 70.5 116t15.5 148v220q0 102 -15.5 148t-70.5 116z" />
    <glyph glyph-name="asterisk" unicode="*" horiz-adv-x="267" 
d="M154 702l-2 -111l98 60h2v-45l-87 -49l87 -49v-45h-2l-99 59l3 -110h-41l2 110l-98 -59h-2v45l87 49l-87 49v45h2l98 -60l-2 111h41z" />
    <glyph glyph-name="plus" unicode="+" horiz-adv-x="312" 
d="M130 213v116h-114v53h114v115h54v-115h114v-53h-114v-116h-54z" />
    <glyph glyph-name="comma" unicode="," horiz-adv-x="122" 
d="M91 100v-68q0 -43 -24 -85l-18 -28l-24 7l11 24q14 34 16 50h-21v100h60z" />
    <glyph glyph-name="hyphen" unicode="-" horiz-adv-x="196" 
d="M17 307h162v-54h-162v54z" />
    <glyph glyph-name="period" unicode="." horiz-adv-x="122" 
d="M91 100v-100h-60v100h60z" />
    <glyph glyph-name="slash" unicode="/" horiz-adv-x="211" 
d="M196 732l-130 -764h-51l130 764h51z" />
    <glyph glyph-name="zero" unicode="0" horiz-adv-x="358" 
d="M316 117q0 -123 -123 -123h-28q-123 0 -123 123v467q0 122 123 122h28q123 0 123 -122v-467zM257 586q0 64 -65 64h-26q-65 0 -65 -64v-472q0 -64 65 -64h26q65 0 65 64v472z" />
    <glyph glyph-name="one" unicode="1" horiz-adv-x="191" 
d="M135 703v-703h-58v600h-64v44l13 2q45 7 69 44l9 13h31z" />
    <glyph glyph-name="two" unicode="2" horiz-adv-x="337" 
d="M90 249l119 149q33 41 33 85v106q0 61 -63 61h-18q-63 0 -63 -61v-134h-58v131q0 120 120 120h22q120 0 120 -120v-94q0 -71 -49 -130l-119 -150q-22 -28 -29.5 -50t-7.5 -58v-48h206v-56h-265v108q0 42 11 73t41 68z" />
    <glyph glyph-name="three" unicode="3" horiz-adv-x="347" 
d="M248 114v147q0 69 -67 69h-75v55h73q67 0 67 69v132q0 64 -63 64h-24q-63 0 -63 -64v-100h-58v98q0 122 122 122h23q123 0 123 -122v-116q0 -86 -63 -106q65 -18 65 -97v-148q0 -123 -123 -123h-28q-121 0 -121 121v112h58v-113q0 -64 65 -64h24q65 0 65 64z" />
    <glyph glyph-name="four" unicode="4" horiz-adv-x="332" 
d="M17 140v55l175 505h75v-507h58v-53h-58v-140h-54v140h-196zM213 193v416l-142 -416h142z" />
    <glyph glyph-name="five" unicode="5" horiz-adv-x="343" 
d="M305 324v-207q0 -123 -122 -123h-21q-120 0 -120 121v125h59v-126q0 -64 64 -64h16q64 0 64 64v199q0 67 -59 67q-44 0 -89 -45h-50v365h250v-56h-194l-2 -246q46 37 98 37q49 0 77.5 -29.5t28.5 -81.5z" />
    <glyph glyph-name="six" unicode="6" horiz-adv-x="350" 
d="M101 586v-201q45 26 94 27h5q54 0 82.5 -30.5t28.5 -80.5v-184q0 -123 -123 -123h-23q-123 0 -123 123v467q0 122 123 122h24q120 0 120 -120v-96h-58v96q0 64 -64 64h-22q-64 0 -64 -64zM101 334v-220q0 -64 64 -64h24q64 0 64 64v176q0 66 -67 66q-46 0 -85 -22z" />
    <glyph glyph-name="seven" unicode="7" horiz-adv-x="277" 
d="M196 644h-181v56h238v-54l-145 -646h-57z" />
    <glyph glyph-name="eight" unicode="8" horiz-adv-x="350" 
d="M164 706h22q123 0 123 -123v-113q0 -85 -62 -106q65 -19 65 -95v-152q0 -123 -123 -123h-28q-123 0 -123 123v152q0 76 65 95q-62 21 -62 106v113q0 123 123 123zM97 265v-152q0 -64 64 -64h28q64 0 64 64v152q0 67 -68 67h-20q-68 0 -68 -67zM166 386h18q68 0 68 69v132
q0 64 -66 64h-23q-65 0 -65 -64v-132q0 -69 68 -69z" />
    <glyph glyph-name="nine" unicode="9" horiz-adv-x="349" 
d="M184 50q64 0 64 64v192q-45 -26 -93 -26h-5q-53 0 -82 30t-29 80v194q0 122 123 122h22q123 0 123 -122v-467q0 -123 -123 -123h-22q-62 0 -92 29.5t-30 90.5v91h58v-91q0 -64 64 -64h22zM248 358v228q0 64 -64 64h-22q-64 0 -64 -64v-185q0 -65 66 -65q45 0 84 22z" />
    <glyph glyph-name="colon" unicode=":" horiz-adv-x="122" 
d="M91 100v-100h-60v100h60zM91 537v-100h-60v100h60z" />
    <glyph glyph-name="semicolon" unicode=";" horiz-adv-x="122" 
d="M91 100v-68q0 -43 -24 -85l-18 -28l-24 7l11 24q14 34 16 50h-21v100h60zM91 537v-100h-60v100h60z" />
    <glyph glyph-name="less" unicode="&#x3c;" horiz-adv-x="314" 
d="M15 392l272 98v-58l-223 -75l223 -73v-59l-272 94v73z" />
    <glyph glyph-name="equal" unicode="=" horiz-adv-x="314" 
d="M21 456h272v-53h-272v53zM21 308h272v-53h-272v53z" />
    <glyph glyph-name="greater" unicode="&#x3e;" horiz-adv-x="314" 
d="M27 490l272 -98v-73l-272 -94v59l223 73l-223 75v58z" />
    <glyph glyph-name="question" unicode="?" horiz-adv-x="309" 
d="M168 386l27 30q28 32 28 64v108q0 62 -63 62h-17q-61 0 -61 -61v-131h-57v128q0 120 122 120h14q121 0 121 -121v-101q0 -33 -10 -51.5t-42 -55.5l-35 -42q-13 -16 -16 -27.5t-3 -36.5v-95h-52v112q0 34 8 50.5t36 47.5zM179 100v-100h-59v100h59z" />
    <glyph glyph-name="at" unicode="@" horiz-adv-x="499" 
d="M387 34h-21q-29 0 -42.5 10t-17.5 33q-38 -43 -85 -43q-71 0 -71 74v103q0 36 12.5 54.5t46.5 31.5l90 32v89q0 47 -45 47h-5q-48 0 -48 -47v-59h-47v61q0 92 93 92h9q91 0 91 -92v-326q0 -17 7 -24.5t24 -7.5h9q37 0 37 49v342q0 77 -27 106.5t-97 29.5h-101
q-70 0 -97 -29.5t-27 -106.5v-358q0 -77 27 -106.5t97 -29.5h232v-28h-232q-86 0 -119.5 36t-33.5 128v358q0 91 34.5 127.5t118.5 36.5h101q84 0 118.5 -36.5t34.5 -127.5v-344q0 -40 -16 -57.5t-50 -17.5zM235 80q24 0 64 28v174l-67 -25q-20 -7 -27 -18t-7 -31v-88
q0 -40 37 -40z" />
    <glyph glyph-name="A" unicode="A" horiz-adv-x="352" 
d="M212 702l117 -702h-58l-21 132h-149l-20 -132h-58l117 702h72zM175 603l-65 -415h131z" />
    <glyph glyph-name="B" unicode="B" horiz-adv-x="351" 
d="M243 358q67 -24 67 -111v-125q0 -122 -123 -122h-141v700h139q123 0 123 -122v-111q0 -87 -65 -109zM249 581q0 64 -65 64h-79v-261h69q75 0 75 72v125zM105 330v-275h81q65 0 65 64v138q0 73 -75 73h-71z" />
    <glyph glyph-name="C" unicode="C" horiz-adv-x="352" 
d="M256 265h59v-148q0 -123 -123 -123h-27q-123 0 -123 123v467q0 122 123 122h27q121 0 121 -121v-129h-59v130q0 64 -65 64h-22q-65 0 -65 -64v-472q0 -64 65 -64h24q65 0 65 64v151z" />
    <glyph glyph-name="D" unicode="D" horiz-adv-x="360" 
d="M46 0v700h123q149 0 149 -149v-402q0 -149 -149 -149h-123zM106 644v-588h60q92 0 92 93v402q0 93 -92 93h-60z" />
    <glyph glyph-name="E" unicode="E" horiz-adv-x="293" 
d="M46 700h211v-56h-151v-259h146v-56h-146v-273h153v-56h-213v700z" />
    <glyph glyph-name="F" unicode="F" horiz-adv-x="280" 
d="M46 700h206v-56h-146v-260h141v-56h-141v-328h-60v700z" />
    <glyph glyph-name="G" unicode="G" horiz-adv-x="359" 
d="M259 309h-79v56h138v-248q0 -123 -122 -123h-31q-123 0 -123 123v467q0 122 123 122h31q121 0 121 -121v-103h-59v104q0 64 -65 64h-26q-65 0 -65 -64v-472q0 -64 65 -64h28q64 0 64 64v195z" />
    <glyph glyph-name="H" unicode="H" horiz-adv-x="366" 
d="M106 385h154v315h60v-700h-60v329h-154v-329h-60v700h60v-315z" />
    <glyph glyph-name="I" unicode="I" horiz-adv-x="154" 
d="M107 700v-700h-60v700h60z" />
    <glyph glyph-name="J" unicode="J" horiz-adv-x="226" 
d="M182 700v-574q0 -64 -30.5 -95t-94.5 -31h-36v56h33q36 0 51.5 16.5t15.5 53.5v574h61z" />
    <glyph glyph-name="K" unicode="K" horiz-adv-x="335" 
d="M322 0h-66l-150 345v-345h-60v700h60v-341l156 341h64l-161 -344z" />
    <glyph glyph-name="L" unicode="L" horiz-adv-x="270" 
d="M46 700h60v-644h143v-56h-203v700z" />
    <glyph glyph-name="M" unicode="M" horiz-adv-x="497" 
d="M218 0l-118 595l3 -455v-140h-57v700h88l115 -594l115 594h87v-700h-59v142l2 453l-117 -595h-59z" />
    <glyph glyph-name="N" unicode="N" horiz-adv-x="375" 
d="M330 0h-71l-158 577l2 -276v-301h-57v700h76l152 -561l-1 266v295h57v-700z" />
    <glyph glyph-name="O" unicode="O" horiz-adv-x="362" 
d="M320 117q0 -123 -123 -123h-32q-123 0 -123 123v467q0 122 123 122h32q123 0 123 -122v-467zM260 586q0 64 -65 64h-28q-65 0 -65 -64v-472q0 -64 65 -64h28q65 0 65 64v472z" />
    <glyph glyph-name="P" unicode="P" horiz-adv-x="329" 
d="M106 272v-272h-60v700h127q126 0 126 -122v-180q0 -126 -127 -126h-66zM239 581q0 63 -68 63h-65v-317h64q69 0 69 68v186z" />
    <glyph glyph-name="Q" unicode="Q" horiz-adv-x="362" 
d="M320 584v-459q0 -92 -71 -115l86 -38l-31 -48l-115 70h-24q-123 0 -123 123v467q0 122 123 122h32q123 0 123 -122zM260 114v472q0 64 -65 64h-28q-65 0 -65 -64v-472q0 -64 65 -64h28q65 0 65 64z" />
    <glyph glyph-name="R" unicode="R" horiz-adv-x="354" 
d="M242 334q67 -18 67 -99v-235h-60v233q0 73 -75 73h-68v-306h-60v700h139q123 0 123 -122v-134q0 -86 -66 -110zM248 581q0 63 -65 63h-77v-283h69q73 0 73 72v148z" />
    <glyph glyph-name="S" unicode="S" horiz-adv-x="345" 
d="M244 346q35 -26 49 -53.5t14 -71.5v-106q0 -121 -123 -121h-22q-122 0 -122 120v144h59v-146q0 -62 65 -62h18q65 0 65 62v107q0 28 -9 44t-31 33l-103 77q-35 26 -49 54.5t-14 70.5v87q0 121 123 121h19q122 0 122 -120v-123h-59v125q0 62 -65 62h-15q-65 0 -65 -62v-89
q0 -27 9 -43.5t31 -33.5z" />
    <glyph glyph-name="T" unicode="T" horiz-adv-x="304" 
d="M182 0h-60v644h-110v56h280v-56h-110v-644z" />
    <glyph glyph-name="U" unicode="U" horiz-adv-x="361" 
d="M317 700v-583q0 -123 -124 -123h-26q-123 0 -123 123v583h60v-585q0 -65 66 -65h21q66 0 66 65v585h60z" />
    <glyph glyph-name="V" unicode="V" horiz-adv-x="341" 
d="M202 -2h-64l-116 702h61l87 -581l90 581h58z" />
    <glyph glyph-name="W" unicode="W" horiz-adv-x="537" 
d="M299 700l75 -615l76 615h58l-95 -700h-76l-69 554l-68 -554h-76l-95 700h61l74 -618l76 618h59z" />
    <glyph glyph-name="X" unicode="X" horiz-adv-x="333" 
d="M310 700l-108 -348l110 -352h-61l-85 290l-85 -290h-59l109 350l-107 350h61l82 -289l84 289h59z" />
    <glyph glyph-name="Y" unicode="Y" horiz-adv-x="315" 
d="M303 700l-115 -458v-242h-60v240l-116 460h62l84 -371l86 371h59z" />
    <glyph glyph-name="Z" unicode="Z" horiz-adv-x="283" 
d="M197 644h-167v56h227v-55l-170 -589h173v-56h-234v55z" />
    <glyph glyph-name="bracketleft" unicode="[" horiz-adv-x="209" 
d="M200 15v-47h-147v764h147v-47h-93v-670h93z" />
    <glyph glyph-name="backslash" unicode="\" horiz-adv-x="211" 
d="M145 -32l-130 764h51l130 -764h-51z" />
    <glyph glyph-name="bracketright" unicode="]" horiz-adv-x="209" 
d="M9 -32v47h93v670h-93v47h147v-764h-147z" />
    <glyph glyph-name="asciicircum" unicode="^" horiz-adv-x="374" 
d="M213 700l100 -221h-51l-76 167l-74 -167h-51l100 221h52z" />
    <glyph glyph-name="underscore" unicode="_" horiz-adv-x="445" 
d="M4 -30h437v-51h-437v51z" />
    <glyph glyph-name="grave" unicode="`" horiz-adv-x="500" 
d="M271 687l39 -102h-39l-60 102h60z" />
    <glyph glyph-name="a" unicode="a" horiz-adv-x="317" 
d="M34 85v99q0 46 18 69.5t62 40.5l106 39v99q0 57 -58 57h-7q-59 0 -59 -57v-69h-56v67q0 113 115 113h8q114 0 114 -113v-430h-57v36q-51 -42 -97 -42h-2q-87 0 -87 91zM140 49q33 0 80 31v199l-82 -31q-26 -10 -36 -24.5t-10 -40.5v-87q0 -47 47 -47h1z" />
    <glyph glyph-name="b" unicode="b" 
d="M42 0v710h57v-210q49 43 98 43h2q46 0 70 -26t24 -73v-351q0 -47 -24 -73t-70 -26h-2q-48 0 -98 42v-36h-57zM99 452v-366q43 -37 81 -37h2q54 0 54 50v339q0 50 -54 50h-2q-38 0 -81 -36z" />
    <glyph glyph-name="c" unicode="c" horiz-adv-x="324" 
d="M229 343v85q0 61 -60 61h-14q-60 0 -60 -61v-319q0 -60 60 -60h15q60 0 60 60v102h57v-100q0 -117 -116 -117h-17q-117 0 -117 117v315q0 117 117 117h17q115 0 115 -115v-85h-57z" />
    <glyph glyph-name="d" unicode="d" 
d="M289 710v-710h-57v37q-49 -43 -98 -43h-2q-46 0 -70 26t-24 73v351q0 47 24 73t70 26h2q51 0 98 -42v209h57zM232 85v366q-42 37 -81 37h-2q-54 0 -54 -50v-339q0 -50 54 -50h2q37 0 81 36z" />
    <glyph glyph-name="e" unicode="e" horiz-adv-x="321" 
d="M285 246h-190v-137q0 -60 61 -60h12q61 0 61 60v62h56v-60q0 -117 -117 -117h-14q-117 0 -117 117v315q0 117 117 117h14q117 0 117 -117v-180zM95 428v-127h132v127q0 61 -60 61h-11q-61 0 -61 -61z" />
    <glyph glyph-name="f" unicode="f" horiz-adv-x="191" 
d="M58 537v74q0 99 97 99h31v-54h-29q-41 0 -41 -43v-76h67v-53h-67v-484h-58v484h-35v53h35z" />
    <glyph glyph-name="g" unicode="g" horiz-adv-x="330" 
d="M289 537v-544q0 -107 -110 -107h-36q-102 0 -102 99v24h53v-22q0 -50 51 -50h36q50 0 50 50v103q-46 -40 -97 -40h-2q-46 0 -70 26t-24 72v296q0 47 24 73t70 26h2q53 0 97 -42v36h58zM231 137v315q-43 36 -80 36h-2q-54 0 -54 -50v-283q0 -51 54 -51h2q38 0 80 33z" />
    <glyph glyph-name="h" unicode="h" 
d="M42 0v710h57v-210q52 43 99 43h3q90 0 90 -92v-451h-57v440q0 49 -50 49h-1q-37 0 -84 -34v-455h-57z" />
    <glyph glyph-name="i" unicode="i" horiz-adv-x="146" 
d="M43 601v76h60v-76h-60zM44 0v537h58v-537h-58z" />
    <glyph glyph-name="j" unicode="j" horiz-adv-x="149" 
d="M46 601v76h60v-76h-60zM105 537v-556q0 -93 -88 -93h-11v53h3q38 0 38 42v554h58z" />
    <glyph glyph-name="k" unicode="k" horiz-adv-x="303" 
d="M234 537h61l-140 -262l137 -275h-64l-129 268v-268h-57v710h57v-433z" />
    <glyph glyph-name="l" unicode="l" horiz-adv-x="146" 
d="M44 0v710h58v-710h-58z" />
    <glyph glyph-name="m" unicode="m" horiz-adv-x="510" 
d="M42 0v537h57v-37q52 43 97 43h2q58 0 78 -46q55 46 104 46h2q43 0 65.5 -23.5t22.5 -66.5v-453h-58v442q0 47 -47 47h-1q-35 0 -80 -33v-456h-57v442q0 47 -46 47h-1q-34 0 -81 -34v-455h-57z" />
    <glyph glyph-name="n" unicode="n" 
d="M42 0v537h57v-37q52 43 99 43h3q90 0 90 -92v-451h-57v440q0 49 -50 49h-1q-37 0 -84 -34v-455h-57z" />
    <glyph glyph-name="o" unicode="o" horiz-adv-x="328" 
d="M175 -6h-21q-117 0 -117 117v315q0 117 117 117h21q116 0 116 -117v-315q0 -117 -116 -117zM174 489h-19q-60 0 -60 -61v-319q0 -60 60 -60h19q60 0 60 60v319q0 61 -60 61z" />
    <glyph glyph-name="p" unicode="p" 
d="M293 93q0 -47 -24 -73t-70 -26h-2q-48 0 -98 42v-146h-57v647h57v-37q49 43 98 43h2q46 0 70 -26t24 -73v-351zM236 438q0 50 -54 50h-2q-38 0 -81 -36v-366q43 -37 81 -37h2q54 0 54 50v339z" />
    <glyph glyph-name="q" unicode="q" 
d="M289 537v-647h-57v147q-49 -43 -98 -43h-2q-46 0 -70 26t-24 73v351q0 47 24 73t70 26h2q51 0 98 -42v36h57zM232 85v366q-44 37 -81 37h-2q-54 0 -54 -50v-339q0 -50 54 -50h2q37 0 81 36z" />
    <glyph glyph-name="r" unicode="r" horiz-adv-x="206" 
d="M42 0v537h57v-54q35 58 92 59v-65q-57 -4 -92 -39v-438h-57z" />
    <glyph glyph-name="s" unicode="s" horiz-adv-x="316" 
d="M222 353v82q0 55 -57 55h-14q-57 0 -57 -55v-49q0 -40 34 -61l91 -56q33 -21 47 -44.5t14 -60.5v-57q0 -113 -114 -113h-16q-113 0 -113 112v82h56v-86q0 -54 57 -54h17q56 0 56 54v55q0 40 -34 60l-91 57q-33 21 -46.5 44t-13.5 61v51q0 113 114 113h14q112 0 112 -112
v-78h-56z" />
    <glyph glyph-name="t" unicode="t" horiz-adv-x="193" 
d="M118 484v-484h-58v484h-39v53h39v90h58v-90h62v-53h-62z" />
    <glyph glyph-name="u" unicode="u" 
d="M290 537v-537h-58v37q-52 -43 -99 -43h-3q-90 0 -90 92v451h58v-440q0 -48 49 -48h2q36 0 83 33v455h58z" />
    <glyph glyph-name="v" unicode="v" horiz-adv-x="311" 
d="M187 -1h-63l-103 538h59l76 -452l76 452h57z" />
    <glyph glyph-name="w" unicode="w" horiz-adv-x="459" 
d="M293 -1l-63 422l-64 -422h-59l-87 538h57l59 -434l66 434h56l66 -433l58 433h55l-85 -538h-59z" />
    <glyph glyph-name="x" unicode="x" horiz-adv-x="290" 
d="M69 0h-58l101 265l-99 272h59l73 -210l74 210h58l-99 -264l101 -273h-59l-76 211z" />
    <glyph glyph-name="y" unicode="y" horiz-adv-x="310" 
d="M160 -110h-56l24 111l-109 536h58l79 -428l79 428h56z" />
    <glyph glyph-name="z" unicode="z" horiz-adv-x="252" 
d="M171 484h-148v53h207v-52l-152 -431h153v-54h-211v52z" />
    <glyph glyph-name="braceleft" unicode="{" horiz-adv-x="248" 
d="M90 191v85q0 25 -9.5 34.5t-33.5 15.5l-26 5v40l26 4q25 5 34 15.5t9 34.5v84q0 92 17.5 130t84.5 101l38 -16q-59 -66 -72 -99.5t-13 -114.5v-60q0 -81 -59 -99q32 -9 45.5 -29.5t13.5 -60.5v-71q0 -81 13 -114.5t72 -99.5l-38 -16q-67 63 -84.5 101t-17.5 130z" />
    <glyph glyph-name="bar" unicode="|" horiz-adv-x="270" 
d="M160 763v-830h-49v830h49z" />
    <glyph glyph-name="braceright" unicode="}" horiz-adv-x="248" 
d="M157 276v-85q0 -92 -17.5 -130t-84.5 -101l-38 16q59 66 72 99.5t13 114.5v71q0 40 13.5 60.5t45.5 29.5q-59 18 -59 99v60q0 81 -13 114.5t-72 99.5l38 16q67 -63 84.5 -101t17.5 -130v-84q0 -24 9 -34.5t34 -15.5l26 -4v-40l-26 -5q-24 -6 -33.5 -15.5t-9.5 -34.5z" />
    <glyph glyph-name="asciitilde" unicode="~" horiz-adv-x="374" 
d="M57 308v50q30 35 73 35h3q24 0 50 -12l20 -8q28 -11 45 -11h4q39 0 72 33v-49q-32 -35 -74 -35h-2q-22 0 -54 13l-14 6q-28 11 -47 11h-3q-43 0 -73 -33z" />
    <glyph glyph-name="uni00A0" unicode="&#xa0;" horiz-adv-x="120" 
 />
    <glyph glyph-name="exclamdown" unicode="&#xa1;" horiz-adv-x="155" 
d="M89 519l17 -292v-227h-58v227l18 292h23zM107 700v-100h-59v100h59z" />
    <glyph glyph-name="cent" unicode="&#xa2;" horiz-adv-x="323" 
d="M227 425v81q0 61 -60 61h-10q-60 0 -60 -61v-308q0 -61 60 -61h11q60 0 60 61v99h57v-97q0 -107 -97 -116v-85h-50v84q-98 9 -98 117v304q0 107 98 116v81h50v-81q96 -10 96 -116v-79h-57z" />
    <glyph glyph-name="sterling" unicode="&#xa3;" horiz-adv-x="369" 
d="M30 288v54h43v242q0 122 120 122h20q119 0 119 -121v-122h-59v123q0 64 -61 64h-18q-61 0 -61 -64v-244h134v-54h-134v-232h202v-56h-305v56h43v232h-43z" />
    <glyph glyph-name="yen" unicode="&#xa5;" horiz-adv-x="327" 
d="M37 284h92l-109 416h60l84 -355l85 355h58l-110 -416h93v-43h-97v-57h97v-43h-97v-141h-59v141h-97v43h97v57h-97v43z" />
    <glyph glyph-name="section" unicode="&#xa7;" horiz-adv-x="346" 
d="M112 408q-39 16 -53.5 37.5t-14.5 65.5v74q0 121 123 121h16q121 0 121 -120v-83h-57v85q0 63 -64 63h-16q-65 0 -65 -63v-83q0 -22 9.5 -33t31.5 -21l105 -45q30 -12 40 -26t10 -41v-10zM234 292q38 -16 52.5 -37.5t14.5 -65.5v-74q0 -121 -123 -121h-15
q-122 0 -122 120v83h57v-85q0 -63 65 -63h15q65 0 65 63v83q0 22 -9.5 33t-31.5 21l-105 45q-30 12 -40 26t-10 41v10z" />
    <glyph glyph-name="dieresis" unicode="&#xa8;" horiz-adv-x="500" 
d="M280 585v84h50v-84h-50zM220 669v-84h-50v84h50z" />
    <glyph glyph-name="copyright" unicode="&#xa9;" horiz-adv-x="496" 
d="M450 542v-384q0 -88 -36 -126t-117 -38h-98q-81 0 -117 38t-36 126v384q0 88 36 126t117 38h98q81 0 117 -38t36 -126zM428 158v384q0 77 -30.5 110t-100.5 33h-98q-70 0 -100.5 -33t-30.5 -110v-384q0 -76 30.5 -109.5t100.5 -33.5h98q70 0 100.5 33.5t30.5 109.5z
M300 279h47v-101q0 -44 -21.5 -65t-68.5 -21h-14q-47 0 -68.5 21t-21.5 65v345q0 86 90 86h13q90 0 90 -86v-91h-47v87q0 43 -43 43h-12q-43 0 -43 -43v-337q0 -43 43 -43h13q43 0 43 43v97z" />
    <glyph glyph-name="ordfeminine" unicode="&#xaa;" horiz-adv-x="229" 
d="M37 471v38q0 26 10.5 40t35.5 22l68 23v44q0 33 -33 33h-6q-35 0 -35 -33v-28h-37v32q0 64 71 64h8q70 0 70 -64v-225h-38v22q-33 -25 -59 -25h-2q-53 0 -53 57zM101 450q23 0 50 23v86l-50 -17q-26 -10 -26 -35v-29q0 -28 26 -28z" />
    <glyph glyph-name="guillemotleft" unicode="&#xab;" horiz-adv-x="233" 
d="M15 280l56 152h47l-48 -152l48 -152h-45zM115 280l50 152h47l-42 -152l42 -152h-45z" />
    <glyph glyph-name="registered" unicode="&#xae;" horiz-adv-x="302" 
d="M272 608v-175q0 -52 -21 -75t-71 -23h-59q-50 0 -70.5 23t-20.5 75v175q0 53 20.5 75.5t70.5 22.5h58q50 0 71.5 -22.5t21.5 -75.5zM255 433v175q0 44 -17 62.5t-59 18.5h-58q-41 0 -57.5 -18.5t-16.5 -62.5v-175q0 -44 16.5 -62.5t57.5 -18.5h59q42 0 58.5 18.5
t16.5 62.5zM213 599v-44q0 -34 -31 -44q31 -6 31 -38v-75h-30v71q0 17 -8 23t-27 6h-23v-100h-31v246h57q62 0 62 -45zM183 554v39q0 24 -33 24h-25v-92h23q35 0 35 29z" />
    <glyph glyph-name="macron" unicode="&#xaf;" horiz-adv-x="500" 
d="M159 650h182v-50h-182v50z" />
    <glyph glyph-name="degree" unicode="&#xb0;" horiz-adv-x="261" 
d="M230 619v-176q0 -87 -83 -87h-32q-83 0 -83 87v176q0 87 83 87h32q83 0 83 -87zM183 448v165q0 45 -40 45h-23q-41 0 -41 -45v-165q0 -45 41 -45h22q41 0 41 45z" />
    <glyph glyph-name="plusminus" unicode="&#xb1;" horiz-adv-x="314" 
d="M130 277v115h-113v53h113v115h55v-115h114v-53h-114v-115h-55zM17 210h280v-52h-280v52z" />
    <glyph glyph-name="acute" unicode="&#xb4;" horiz-adv-x="500" 
d="M211 585l39 102h59l-60 -102h-38z" />
    <glyph glyph-name="paragraph" unicode="&#xb6;" horiz-adv-x="335" 
d="M242 647h-52v-647h-6q-141 10 -141 165v369q0 166 162 166h85v-700h-48v647z" />
    <glyph glyph-name="periodcentered" unicode="&#xb7;" horiz-adv-x="122" 
d="M91 344v-100h-60v100h60z" />
    <glyph glyph-name="cedilla" unicode="&#xb8;" horiz-adv-x="500" 
d="M290 0l-23 -91h-53l39 91h37z" />
    <glyph glyph-name="ordmasculine" unicode="&#xba;" horiz-adv-x="237" 
d="M126 670h-14q-36 0 -36 -37v-146q0 -38 36 -38h14q35 0 35 38v146q0 37 -35 37zM128 414h-19q-71 0 -71 72v148q0 72 71 72h19q71 0 71 -72v-148q0 -72 -71 -72z" />
    <glyph glyph-name="guillemotright" unicode="&#xbb;" horiz-adv-x="233" 
d="M161 432l56 -152l-58 -152h-45l48 152l-48 152h47zM67 432l50 -152l-52 -152h-45l42 152l-42 152h47z" />
    <glyph glyph-name="questiondown" unicode="&#xbf;" horiz-adv-x="309" 
d="M140 315l-27 -30q-28 -32 -28 -64v-108q0 -62 63 -62h17q61 0 61 61v131h57v-128q0 -120 -122 -120h-14q-121 0 -121 121v101q0 33 10 51t42 56l35 42q13 16 16 27.5t3 36.5v95h52v-112q0 -34 -8 -50.5t-36 -47.5zM129 601v100h59v-100h-59z" />
    <glyph glyph-name="Agrave" unicode="&#xc0;" horiz-adv-x="352" 
d="M212 702l117 -702h-58l-21 132h-149l-20 -132h-58l117 702h72zM175 603l-65 -415h131zM152 827l45 -82h-39l-66 82h60z" />
    <glyph glyph-name="Aacute" unicode="&#xc1;" horiz-adv-x="352" 
d="M212 702l117 -702h-58l-21 132h-149l-20 -132h-58l117 702h72zM175 603l-65 -415h131zM157 745l45 82h59l-65 -82h-39z" />
    <glyph glyph-name="Acircumflex" unicode="&#xc2;" horiz-adv-x="352" 
d="M329 0h-58l-21 132h-149l-20 -132h-58l117 702h72zM175 603l-65 -415h131zM204 835l65 -90h-40l-52 52l-52 -52h-40l66 90h53z" />
    <glyph glyph-name="Atilde" unicode="&#xc3;" horiz-adv-x="352" 
d="M212 702l117 -702h-58l-21 132h-149l-20 -132h-58l117 702h72zM175 603l-65 -415h131zM118 836h4q22 0 42 -13l39 -29q12 -8 20 -8h2q11 0 11 14v36h39v-51q0 -40 -39 -40h-4q-22 0 -42 13l-39 28q-12 8 -20 8h-2q-11 0 -11 -14v-35h-39v51q0 40 39 40z" />
    <glyph glyph-name="Adieresis" unicode="&#xc4;" horiz-adv-x="352" 
d="M329 0h-58l-21 132h-149l-20 -132h-58l117 702h72zM175 603l-65 -415h131zM206 745v69h51v-69h-51zM147 814v-69h-51v69h51z" />
    <glyph glyph-name="Aring" unicode="&#xc5;" horiz-adv-x="352" 
d="M269 707v-4q0 -45 -49 -50l109 -653h-59l-21 132h-148l-20 -132h-58l109 653q-48 5 -48 50v4q0 49 60 49h64q61 0 61 -49zM175 605l-65 -418h131zM247 702v6q0 29 -41 29h-60q-41 0 -41 -29v-6q0 -30 41 -30h60q41 0 41 30z" />
    <glyph glyph-name="AE" unicode="&#xc6;" horiz-adv-x="466" 
d="M179 700h251v-56h-150v-259h145v-56h-145v-273h152v-56h-213v132h-110l-28 -132h-59zM120 187h99v465z" />
    <glyph glyph-name="Ccedilla" unicode="&#xc7;" horiz-adv-x="352" 
d="M256 265h59v-148q0 -116 -111 -122l-21 -86h-53l36 85h-1q-123 0 -123 123v467q0 122 123 122h27q121 0 121 -121v-129h-59v130q0 64 -65 64h-22q-65 0 -65 -64v-472q0 -64 65 -64h24q65 0 65 64v151z" />
    <glyph glyph-name="Egrave" unicode="&#xc8;" horiz-adv-x="293" 
d="M128 827l45 -82h-39l-66 82h60zM46 700h211v-56h-151v-259h146v-56h-146v-273h153v-56h-213v700z" />
    <glyph glyph-name="Eacute" unicode="&#xc9;" horiz-adv-x="293" 
d="M133 745l45 82h59l-65 -82h-39zM46 700h211v-56h-151v-259h146v-56h-146v-273h153v-56h-213v700z" />
    <glyph glyph-name="Ecircumflex" unicode="&#xca;" horiz-adv-x="293" 
d="M46 700h211v-56h-151v-259h146v-56h-146v-273h153v-56h-213v700zM180 835l65 -90h-40l-52 52l-52 -52h-40l66 90h53z" />
    <glyph glyph-name="Edieresis" unicode="&#xcb;" horiz-adv-x="293" 
d="M182 745v69h51v-69h-51zM123 814v-69h-51v69h51zM46 700h211v-56h-151v-259h146v-56h-146v-273h153v-56h-213v700z" />
    <glyph glyph-name="Igrave" unicode="&#xcc;" horiz-adv-x="154" 
d="M107 700v-700h-60v700h60zM53 827l45 -82h-39l-66 82h60z" />
    <glyph glyph-name="Iacute" unicode="&#xcd;" horiz-adv-x="154" 
d="M107 700v-700h-60v700h60zM58 745l45 82h59l-65 -82h-39z" />
    <glyph glyph-name="Icircumflex" unicode="&#xce;" horiz-adv-x="154" 
d="M107 700v-700h-60v700h60zM105 835l65 -90h-40l-52 52l-52 -52h-40l66 90h53z" />
    <glyph glyph-name="Idieresis" unicode="&#xcf;" horiz-adv-x="154" 
d="M107 700v-700h-60v700h60zM108 745v69h51v-69h-51zM49 814v-69h-51v69h51z" />
    <glyph glyph-name="Eth" unicode="&#xd0;" horiz-adv-x="374" 
d="M59 0v328h-49v53h49v319h123q149 0 149 -149v-402q0 -149 -149 -149h-123zM119 644v-263h83v-53h-83v-272h60q92 0 92 93v402q0 93 -92 93h-60z" />
    <glyph glyph-name="Ntilde" unicode="&#xd1;" horiz-adv-x="375" 
d="M122 700l152 -561l-1 266v295h57v-700h-71l-158 577l2 -276v-301h-57v700h76zM129 836h4q23 0 42 -13l39 -29q12 -8 20 -8h2q11 0 11 14v36h39v-51q0 -40 -39 -40h-4q-23 0 -42 13l-39 28q-12 8 -20 8h-2q-11 0 -11 -14v-35h-39v51q0 40 39 40z" />
    <glyph glyph-name="Ograve" unicode="&#xd2;" horiz-adv-x="362" 
d="M157 827l45 -82h-39l-66 82h60zM320 117q0 -123 -123 -123h-32q-123 0 -123 123v467q0 122 123 122h32q123 0 123 -122v-467zM260 586q0 64 -65 64h-28q-65 0 -65 -64v-472q0 -64 65 -64h28q65 0 65 64v472z" />
    <glyph glyph-name="Oacute" unicode="&#xd3;" horiz-adv-x="362" 
d="M162 745l45 82h59l-65 -82h-39zM320 117q0 -123 -123 -123h-32q-123 0 -123 123v467q0 122 123 122h32q123 0 123 -122v-467zM260 586q0 64 -65 64h-28q-65 0 -65 -64v-472q0 -64 65 -64h28q65 0 65 64v472z" />
    <glyph glyph-name="Ocircumflex" unicode="&#xd4;" horiz-adv-x="362" 
d="M320 117q0 -123 -123 -123h-32q-123 0 -123 123v467q0 122 123 122h32q123 0 123 -122v-467zM260 586q0 64 -65 64h-28q-65 0 -65 -64v-472q0 -64 65 -64h28q65 0 65 64v472zM208 835l65 -90h-40l-52 52l-52 -52h-40l66 90h53z" />
    <glyph glyph-name="Otilde" unicode="&#xd5;" horiz-adv-x="362" 
d="M122 836h4q22 0 42 -13l39 -29q12 -8 20 -8h2q11 0 11 14v36h39v-51q0 -40 -39 -40h-4q-23 0 -42 13l-39 28q-12 8 -20 8h-2q-11 0 -11 -14v-35h-39v51q0 40 39 40zM320 117q0 -123 -123 -123h-32q-123 0 -123 123v467q0 122 123 122h32q123 0 123 -122v-467zM260 586
q0 64 -65 64h-28q-65 0 -65 -64v-472q0 -64 65 -64h28q65 0 65 64v472z" />
    <glyph glyph-name="Odieresis" unicode="&#xd6;" horiz-adv-x="362" 
d="M211 745v69h51v-69h-51zM152 814v-69h-51v69h51zM320 117q0 -123 -123 -123h-32q-123 0 -123 123v467q0 122 123 122h32q123 0 123 -122v-467zM260 586q0 64 -65 64h-28q-65 0 -65 -64v-472q0 -64 65 -64h28q65 0 65 64v472z" />
    <glyph glyph-name="multiply" unicode="&#xd7;" horiz-adv-x="314" 
d="M245 231l-88 86l-87 -87l-38 37l88 88l-87 87l38 38l87 -87l87 88l38 -38l-88 -88l88 -86z" />
    <glyph glyph-name="Oslash" unicode="&#xd8;" horiz-adv-x="362" 
d="M320 117q0 -123 -123 -123h-32q-123 0 -123 123v467q0 122 123 122h32q123 0 123 -122v-467zM261 211v345h-1v5l-143 -494q14 -17 50 -17h28q65 0 65 64zM102 143v-4l142 494q-15 17 -49 17h-28q-65 0 -65 -64l-1 -126v-317h1z" />
    <glyph glyph-name="Ugrave" unicode="&#xd9;" horiz-adv-x="361" 
d="M156 827l45 -82h-39l-66 82h60zM317 700v-583q0 -123 -124 -123h-26q-123 0 -123 123v583h60v-585q0 -65 66 -65h21q66 0 66 65v585h60z" />
    <glyph glyph-name="Uacute" unicode="&#xda;" horiz-adv-x="361" 
d="M161 745l45 82h59l-65 -82h-39zM317 700v-583q0 -123 -124 -123h-26q-123 0 -123 123v583h60v-585q0 -65 66 -65h21q66 0 66 65v585h60z" />
    <glyph glyph-name="Ucircumflex" unicode="&#xdb;" horiz-adv-x="361" 
d="M317 700v-583q0 -123 -124 -123h-26q-123 0 -123 123v583h60v-585q0 -65 66 -65h21q66 0 66 65v585h60zM207 835l65 -90h-40l-52 52l-52 -52h-40l66 90h53z" />
    <glyph glyph-name="Udieresis" unicode="&#xdc;" horiz-adv-x="361" 
d="M210 745v69h51v-69h-51zM151 814v-69h-51v69h51zM317 700v-583q0 -123 -124 -123h-26q-123 0 -123 123v583h60v-585q0 -65 66 -65h21q66 0 66 65v585h60z" />
    <glyph glyph-name="Yacute" unicode="&#xdd;" horiz-adv-x="315" 
d="M303 700l-115 -458v-242h-60v240l-116 460h62l84 -371l86 371h59zM139 745l45 82h59l-65 -82h-39z" />
    <glyph glyph-name="Thorn" unicode="&#xde;" horiz-adv-x="327" 
d="M106 143v-143h-60v700h60v-138h66q125 0 125 -122v-171q0 -126 -127 -126h-64zM237 443q0 64 -67 64h-64v-309h62q69 0 69 68v177z" />
    <glyph glyph-name="germandbls" unicode="&#xdf;" horiz-adv-x="335" 
d="M297 271v-154q0 -117 -117 -117h-45v54h44q61 0 61 61v154q0 67 -66 67h-38v54h36q66 0 66 67v136q0 62 -62 62h-15q-62 0 -62 -62v-593h-57v592q0 118 118 118h17q118 0 118 -118v-119q0 -85 -62 -106q64 -16 64 -96z" />
    <glyph glyph-name="agrave" unicode="&#xe0;" horiz-adv-x="317" 
d="M34 85v99q0 46 18 69.5t62 40.5l106 39v99q0 57 -58 57h-7q-59 0 -59 -57v-69h-56v67q0 113 115 113h8q114 0 114 -113v-430h-57v36q-51 -42 -97 -42h-2q-87 0 -87 91zM140 49q33 0 80 31v199l-82 -31q-26 -10 -36 -24.5t-10 -40.5v-87q0 -47 47 -47h1zM146 687l39 -102
h-39l-60 102h60z" />
    <glyph glyph-name="aacute" unicode="&#xe1;" horiz-adv-x="317" 
d="M34 85v99q0 46 18 69.5t62 40.5l106 39v99q0 57 -58 57h-7q-59 0 -59 -57v-69h-56v67q0 113 115 113h8q114 0 114 -113v-430h-57v36q-51 -42 -97 -42h-2q-87 0 -87 91zM140 49q33 0 80 31v199l-82 -31q-26 -10 -36 -24.5t-10 -40.5v-87q0 -47 47 -47h1zM144 585l39 102
h59l-60 -102h-38z" />
    <glyph glyph-name="acircumflex" unicode="&#xe2;" horiz-adv-x="317" 
d="M34 85v99q0 46 18 69.5t62 40.5l106 39v99q0 57 -58 57h-7q-59 0 -59 -57v-69h-56v67q0 113 115 113h8q114 0 114 -113v-430h-57v36q-51 -42 -97 -42h-2q-87 0 -87 91zM140 49q33 0 80 31v199l-82 -31q-26 -10 -36 -24.5t-10 -40.5v-87q0 -47 47 -47h1zM192 687l61 -102
h-40l-48 61l-48 -61h-40l62 102h53z" />
    <glyph glyph-name="atilde" unicode="&#xe3;" horiz-adv-x="317" 
d="M34 85v99q0 46 18 69.5t62 40.5l106 39v99q0 57 -58 57h-7q-59 0 -59 -57v-69h-56v67q0 113 115 113h8q114 0 114 -113v-430h-57v36q-51 -42 -97 -42h-2q-87 0 -87 91zM140 49q33 0 80 31v199l-82 -31q-26 -10 -36 -24.5t-10 -40.5v-87q0 -47 47 -47h1zM110 681h3
q23 0 44 -16l31 -26q14 -11 20 -11h2q10 0 10 14v39h40v-55q0 -41 -39 -41h-4q-23 0 -44 17l-31 25q-14 11 -20 11h-2q-10 0 -10 -14v-39h-39v55q0 41 39 41z" />
    <glyph glyph-name="adieresis" unicode="&#xe4;" horiz-adv-x="317" 
d="M34 85v99q0 46 18 69.5t62 40.5l106 39v99q0 57 -58 57h-7q-59 0 -59 -57v-69h-56v67q0 113 115 113h8q114 0 114 -113v-430h-57v36q-51 -42 -97 -42h-2q-87 0 -87 91zM140 49q33 0 80 31v199l-82 -31q-26 -10 -36 -24.5t-10 -40.5v-87q0 -47 47 -47h1zM195 585v84h50
v-84h-50zM135 669v-84h-50v84h50z" />
    <glyph glyph-name="aring" unicode="&#xe5;" horiz-adv-x="317" 
d="M34 85v99q0 46 18 69.5t62 40.5l106 39v99q0 57 -58 57h-7q-59 0 -59 -57v-69h-56v67q0 113 115 113h8q114 0 114 -113v-430h-57v36q-51 -42 -97 -42h-2q-87 0 -87 91zM140 49q33 0 80 31v199l-82 -31q-26 -10 -36 -24.5t-10 -40.5v-87q0 -47 47 -47h1zM245 640v-5
q0 -51 -61 -51h-38q-61 0 -61 51v5q0 51 61 51h38q61 0 61 -51zM224 635v5q0 32 -43 32h-32q-43 0 -43 -32v-5q0 -17 10 -24.5t34 -7.5h31q43 0 43 32z" />
    <glyph glyph-name="ae" unicode="&#xe6;" horiz-adv-x="513" 
d="M346 543h14q116 0 116 -117v-180h-190v-137q0 -60 61 -60h13q60 0 60 60v66h56v-64q0 -117 -116 -117h-14q-74 0 -102 48q-40 -27 -62.5 -37.5t-49.5 -10.5h-1q-88 0 -88 91v105q0 46 18 69t62 39l106 39v95q0 57 -58 57h-7q-59 0 -59 -57v-69h-57v67q0 113 116 113h8
q59 0 86 -41q26 41 88 41zM230 81q-1 4 -1 18v184l-82 -30q-26 -10 -36 -24t-10 -40v-93q0 -47 47 -47h1q34 0 81 32zM286 428v-127h133v127q0 61 -61 61h-11q-61 0 -61 -61z" />
    <glyph glyph-name="ccedilla" unicode="&#xe7;" horiz-adv-x="324" 
d="M229 343v85q0 61 -60 61h-14q-60 0 -60 -61v-319q0 -60 60 -60h15q60 0 60 60v102h57v-100q0 -110 -104 -116l-21 -86h-53l36 85q-108 4 -108 117v315q0 117 117 117h17q115 0 115 -115v-85h-57z" />
    <glyph glyph-name="egrave" unicode="&#xe8;" horiz-adv-x="321" 
d="M285 246h-190v-137q0 -60 61 -60h12q61 0 61 60v62h56v-60q0 -117 -117 -117h-14q-117 0 -117 117v315q0 117 117 117h14q117 0 117 -117v-180zM95 428v-127h132v127q0 61 -60 61h-11q-61 0 -61 -61zM143 687l39 -102h-39l-60 102h60z" />
    <glyph glyph-name="eacute" unicode="&#xe9;" horiz-adv-x="321" 
d="M285 246h-190v-137q0 -60 61 -60h12q61 0 61 60v62h56v-60q0 -117 -117 -117h-14q-117 0 -117 117v315q0 117 117 117h14q117 0 117 -117v-180zM95 428v-127h132v127q0 61 -60 61h-11q-61 0 -61 -61zM142 585l39 102h59l-60 -102h-38z" />
    <glyph glyph-name="ecircumflex" unicode="&#xea;" horiz-adv-x="321" 
d="M285 246h-190v-137q0 -60 61 -60h12q61 0 61 60v62h56v-60q0 -117 -117 -117h-14q-117 0 -117 117v315q0 117 117 117h14q117 0 117 -117v-180zM95 428v-127h132v127q0 61 -60 61h-11q-61 0 -61 -61zM189 687l61 -102h-40l-48 61l-48 -61h-40l62 102h53z" />
    <glyph glyph-name="edieresis" unicode="&#xeb;" horiz-adv-x="321" 
d="M285 246h-190v-137q0 -60 61 -60h12q61 0 61 60v62h56v-60q0 -117 -117 -117h-14q-117 0 -117 117v315q0 117 117 117h14q117 0 117 -117v-180zM95 428v-127h132v127q0 61 -60 61h-11q-61 0 -61 -61zM132 669v-84h-50v84h50zM192 585v84h50v-84h-50z" />
    <glyph glyph-name="igrave" unicode="&#xec;" horiz-adv-x="146" 
d="M44 0v537h58v-537h-58zM55 687l39 -102h-39l-60 102h60z" />
    <glyph glyph-name="iacute" unicode="&#xed;" horiz-adv-x="146" 
d="M54 585l39 102h59l-60 -102h-38zM44 0v537h58v-537h-58z" />
    <glyph glyph-name="icircumflex" unicode="&#xee;" horiz-adv-x="146" 
d="M101 687l61 -102h-40l-48 61l-48 -61h-40l62 102h53zM44 0v537h58v-537h-58z" />
    <glyph glyph-name="idieresis" unicode="&#xef;" horiz-adv-x="146" 
d="M104 585v84h50v-84h-50zM44 669v-84h-50v84h50zM44 0v537h58v-537h-58z" />
    <glyph glyph-name="eth" unicode="&#xf0;" horiz-adv-x="330" 
d="M261 706l-33 -55q37 -18 50.5 -41t13.5 -65v-434q0 -117 -116 -117h-22q-116 0 -116 117v324q0 106 100 106h1q61 0 98 -37v34q0 31 -9.5 44t-40.5 27h-38l8 13l-71 32l25 49l74 -33l22 36h54zM174 488h-18q-61 0 -61 -60v-319q0 -60 61 -60h18q60 0 60 60v319
q0 60 -60 60z" />
    <glyph glyph-name="ntilde" unicode="&#xf1;" 
d="M42 0v537h57v-37q52 43 99 43h3q90 0 90 -92v-451h-57v440q0 49 -50 49h-1q-37 0 -84 -34v-455h-57zM111 681h3q23 0 44 -16l31 -26q14 -11 20 -11h2q10 0 10 14v39h40v-55q0 -41 -39 -41h-4q-23 0 -44 17l-31 25q-14 11 -20 11h-2q-10 0 -10 -14v-39h-39v55q0 41 39 41z
" />
    <glyph glyph-name="ograve" unicode="&#xf2;" horiz-adv-x="328" 
d="M175 -6h-21q-117 0 -117 117v315q0 117 117 117h21q116 0 116 -117v-315q0 -117 -116 -117zM174 489h-19q-60 0 -60 -61v-319q0 -60 60 -60h19q60 0 60 60v319q0 61 -60 61zM146 687l39 -102h-39l-60 102h60z" />
    <glyph glyph-name="oacute" unicode="&#xf3;" horiz-adv-x="328" 
d="M145 585l39 102h59l-60 -102h-38zM175 -6h-21q-117 0 -117 117v315q0 117 117 117h21q116 0 116 -117v-315q0 -117 -116 -117zM174 489h-19q-60 0 -60 -61v-319q0 -60 60 -60h19q60 0 60 60v319q0 61 -60 61z" />
    <glyph glyph-name="ocircumflex" unicode="&#xf4;" horiz-adv-x="328" 
d="M192 687l61 -102h-40l-48 61l-48 -61h-40l62 102h53zM175 -6h-21q-117 0 -117 117v315q0 117 117 117h21q116 0 116 -117v-315q0 -117 -116 -117zM174 489h-19q-60 0 -60 -61v-319q0 -60 60 -60h19q60 0 60 60v319q0 61 -60 61z" />
    <glyph glyph-name="otilde" unicode="&#xf5;" horiz-adv-x="328" 
d="M175 -6h-21q-117 0 -117 117v315q0 117 117 117h21q116 0 116 -117v-315q0 -117 -116 -117zM174 489h-19q-60 0 -60 -61v-319q0 -60 60 -60h19q60 0 60 60v319q0 61 -60 61zM110 681h3q23 0 44 -16l31 -26q14 -11 20 -11h2q10 0 10 14v39h40v-55q0 -41 -39 -41h-4
q-23 0 -44 17l-31 25q-14 11 -20 11h-2q-10 0 -10 -14v-39h-39v55q0 41 39 41z" />
    <glyph glyph-name="odieresis" unicode="&#xf6;" horiz-adv-x="328" 
d="M195 585v84h50v-84h-50zM135 669v-84h-50v84h50zM175 -6h-21q-117 0 -117 117v315q0 117 117 117h21q116 0 116 -117v-315q0 -117 -116 -117zM174 489h-19q-60 0 -60 -61v-319q0 -60 60 -60h19q60 0 60 60v319q0 61 -60 61z" />
    <glyph glyph-name="divide" unicode="&#xf7;" horiz-adv-x="314" 
d="M16 382h282v-53h-282v53zM128 440v73h58v-73h-58zM128 197v73h58v-73h-58z" />
    <glyph glyph-name="oslash" unicode="&#xf8;" horiz-adv-x="328" 
d="M175 -6h-21q-117 0 -117 117v315q0 117 117 117h21q116 0 116 -117v-315q0 -117 -116 -117zM155 489q-60 0 -60 -61v-31l-2 -283h2v-17l119 381q-16 11 -40 11h-19zM233 428q0 2 -0.5 5t-0.5 4l-117 -378q14 -10 40 -10h19q59 0 59 60v34l1 280h-1v5z" />
    <glyph glyph-name="ugrave" unicode="&#xf9;" 
d="M290 537v-537h-58v37q-52 -43 -99 -43h-3q-90 0 -90 92v451h58v-440q0 -48 49 -48h2q36 0 83 33v455h58zM147 687l39 -102h-39l-60 102h60z" />
    <glyph glyph-name="uacute" unicode="&#xfa;" 
d="M145 585l39 102h59l-60 -102h-38zM290 537v-537h-58v37q-52 -43 -99 -43h-3q-90 0 -90 92v451h58v-440q0 -48 49 -48h2q36 0 83 33v455h58z" />
    <glyph glyph-name="ucircumflex" unicode="&#xfb;" 
d="M192 687l61 -102h-40l-48 61l-48 -61h-40l62 102h53zM290 537v-537h-58v37q-52 -43 -99 -43h-3q-90 0 -90 92v451h58v-440q0 -48 49 -48h2q36 0 83 33v455h58z" />
    <glyph glyph-name="udieresis" unicode="&#xfc;" 
d="M195 585v84h50v-84h-50zM135 669v-84h-50v84h50zM290 537v-537h-58v37q-52 -43 -99 -43h-3q-90 0 -90 92v451h58v-440q0 -48 49 -48h2q36 0 83 33v455h58z" />
    <glyph glyph-name="yacute" unicode="&#xfd;" horiz-adv-x="310" 
d="M160 -110h-56l24 111l-109 536h58l79 -428l79 428h56zM137 585l39 102h59l-60 -102h-38z" />
    <glyph glyph-name="thorn" unicode="&#xfe;" horiz-adv-x="332" 
d="M42 710h57v-210q49 43 98 43h2q46 0 70.5 -26t24.5 -73v-351q0 -47 -24.5 -73t-70.5 -26h-2q-49 0 -98 43v-147h-57v820zM99 453v-367q43 -37 83 -37q54 0 54 50v339q0 50 -54 50q-39 0 -83 -35z" />
    <glyph glyph-name="ydieresis" unicode="&#xff;" horiz-adv-x="310" 
d="M160 -110h-56l24 111l-109 536h58l79 -428l79 428h56zM128 669v-84h-50v84h50zM188 585v84h50v-84h-50z" />
    <glyph glyph-name="Amacron" unicode="&#x100;" horiz-adv-x="352" 
d="M329 0h-58l-21 132h-149l-20 -132h-58l117 702h72zM175 603l-65 -415h131zM86 801h182v-43h-182v43z" />
    <glyph glyph-name="amacron" unicode="&#x101;" horiz-adv-x="317" 
d="M34 85v99q0 46 18 69.5t62 40.5l106 39v99q0 57 -58 57h-7q-59 0 -59 -57v-69h-56v67q0 113 115 113h8q114 0 114 -113v-430h-57v36q-51 -42 -97 -42h-2q-87 0 -87 91zM140 49q33 0 80 31v199l-82 -31q-26 -10 -36 -24.5t-10 -40.5v-87q0 -47 47 -47h1zM74 650h182v-50
h-182v50z" />
    <glyph glyph-name="Abreve" unicode="&#x102;" horiz-adv-x="352" 
d="M212 702l117 -702h-58l-21 132h-149l-20 -132h-58l117 702h72zM175 603l-65 -415h131zM93 810v17h42v-13q0 -32 37 -32h10q36 0 36 32v13h43v-17q0 -68 -76 -68h-16q-76 0 -76 68z" />
    <glyph glyph-name="abreve" unicode="&#x103;" horiz-adv-x="317" 
d="M34 85v99q0 46 18 69.5t62 40.5l106 39v99q0 57 -58 57h-7q-59 0 -59 -57v-69h-56v67q0 113 115 113h8q114 0 114 -113v-430h-57v36q-51 -42 -97 -42h-2q-87 0 -87 91zM140 49q33 0 80 31v199l-82 -31q-26 -10 -36 -24.5t-10 -40.5v-87q0 -47 47 -47h1zM83 657v27h43v-27
q0 -34 36 -34h6q36 0 36 34v27h43v-27q0 -75 -76 -75h-12q-76 0 -76 75z" />
    <glyph glyph-name="Aogonek" unicode="&#x104;" horiz-adv-x="352" 
d="M212 702l117 -702h-8l-7 -13q-13 -22 -13 -34v-2q0 -12 13 -12h26v-38h-38q-46 0 -46 40v5q0 18 21 51l2 3h-8l-21 132h-149l-20 -132h-58l117 702h72zM175 603l-65 -415h131z" />
    <glyph glyph-name="aogonek" unicode="&#x105;" horiz-adv-x="317" 
d="M34 85v99q0 46 18 69.5t62 40.5l106 39v99q0 57 -58 57h-7q-59 0 -59 -57v-69h-56v67q0 113 115 113h8q114 0 114 -113v-430h-6l-7 -13q-13 -22 -13 -34v-2q0 -12 13 -12h26v-38h-38q-46 0 -46 40v5q0 18 21 51l2 3h-9v36q-51 -42 -97 -42h-2q-87 0 -87 91zM140 49
q33 0 80 31v199l-82 -31q-26 -10 -36 -24.5t-10 -40.5v-87q0 -47 47 -47h1z" />
    <glyph glyph-name="Cacute" unicode="&#x106;" horiz-adv-x="352" 
d="M256 265h59v-148q0 -123 -123 -123h-27q-123 0 -123 123v467q0 122 123 122h27q121 0 121 -121v-129h-59v130q0 64 -65 64h-22q-65 0 -65 -64v-472q0 -64 65 -64h24q65 0 65 64v151zM159 745l45 82h59l-65 -82h-39z" />
    <glyph glyph-name="cacute" unicode="&#x107;" horiz-adv-x="324" 
d="M143 585l39 102h59l-60 -102h-38zM229 343v85q0 61 -60 61h-14q-60 0 -60 -61v-319q0 -60 60 -60h15q60 0 60 60v102h57v-100q0 -117 -116 -117h-17q-117 0 -117 117v315q0 117 117 117h17q115 0 115 -115v-85h-57z" />
    <glyph glyph-name="Cdotaccent" unicode="&#x10a;" horiz-adv-x="352" 
d="M205 809v-64h-52v64h52zM256 265h59v-148q0 -123 -123 -123h-27q-123 0 -123 123v467q0 122 123 122h27q121 0 121 -121v-129h-59v130q0 64 -65 64h-22q-65 0 -65 -64v-472q0 -64 65 -64h24q65 0 65 64v151z" />
    <glyph glyph-name="cdotaccent" unicode="&#x10b;" horiz-adv-x="324" 
d="M229 343v85q0 61 -60 61h-14q-60 0 -60 -61v-319q0 -60 60 -60h15q60 0 60 60v102h57v-100q0 -117 -116 -117h-17q-117 0 -117 117v315q0 117 117 117h17q115 0 115 -115v-85h-57zM188 664v-79h-52v79h52z" />
    <glyph glyph-name="Ccaron" unicode="&#x10c;" horiz-adv-x="352" 
d="M256 265h59v-148q0 -123 -123 -123h-27q-123 0 -123 123v467q0 122 123 122h27q121 0 121 -121v-129h-59v130q0 64 -65 64h-22q-65 0 -65 -64v-472q0 -64 65 -64h24q65 0 65 64v151zM271 835l-65 -90h-53l-66 90h40l52 -53l52 53h40z" />
    <glyph glyph-name="ccaron" unicode="&#x10d;" horiz-adv-x="324" 
d="M251 687l-61 -102h-53l-62 102h40l48 -62l48 62h40zM229 343v85q0 61 -60 61h-14q-60 0 -60 -61v-319q0 -60 60 -60h15q60 0 60 60v102h57v-100q0 -117 -116 -117h-17q-117 0 -117 117v315q0 117 117 117h17q115 0 115 -115v-85h-57z" />
    <glyph glyph-name="Dcaron" unicode="&#x10e;" horiz-adv-x="360" 
d="M267 835l-65 -90h-53l-66 90h40l52 -53l52 53h40zM46 0v700h123q149 0 149 -149v-402q0 -149 -149 -149h-123zM106 644v-588h60q92 0 92 93v402q0 93 -92 93h-60z" />
    <glyph glyph-name="dcaron" unicode="&#x10f;" 
d="M321 592v117h47l-19 -117h-28zM289 710v-710h-57v37q-49 -43 -98 -43h-2q-46 0 -70 26t-24 73v351q0 47 24 73t70 26h2q51 0 98 -42v209h57zM232 85v366q-42 37 -81 37h-2q-54 0 -54 -50v-339q0 -50 54 -50h2q37 0 81 36z" />
    <glyph glyph-name="Dcroat" unicode="&#x110;" horiz-adv-x="374" 
d="M59 0v328h-49v53h49v319h123q149 0 149 -149v-402q0 -149 -149 -149h-123zM119 644v-263h83v-53h-83v-272h60q92 0 92 93v402q0 93 -92 93h-60z" />
    <glyph glyph-name="dcroat" unicode="&#x111;" horiz-adv-x="343" 
d="M289 710v-69h41v-46h-41v-595h-57v37q-49 -43 -98 -43h-2q-46 0 -70 26t-24 73v351q0 47 24 73t70 26h2q51 0 98 -42v94h-108v46h108v69h57zM232 85v366q-42 37 -81 37h-2q-54 0 -54 -50v-339q0 -50 54 -50h2q37 0 81 36z" />
    <glyph glyph-name="Emacron" unicode="&#x112;" horiz-adv-x="293" 
d="M62 801h182v-43h-182v43zM46 700h211v-56h-151v-259h146v-56h-146v-273h153v-56h-213v700z" />
    <glyph glyph-name="emacron" unicode="&#x113;" horiz-adv-x="321" 
d="M285 246h-190v-137q0 -60 61 -60h12q61 0 61 60v62h56v-60q0 -117 -117 -117h-14q-117 0 -117 117v315q0 117 117 117h14q117 0 117 -117v-180zM95 428v-127h132v127q0 61 -60 61h-11q-61 0 -61 -61zM71 650h182v-50h-182v50z" />
    <glyph glyph-name="Ebreve" unicode="&#x114;" horiz-adv-x="293" 
d="M69 810v17h42v-13q0 -32 37 -32h10q36 0 36 32v13h43v-17q0 -68 -76 -68h-16q-76 0 -76 68zM46 700h211v-56h-151v-259h146v-56h-146v-273h153v-56h-213v700z" />
    <glyph glyph-name="ebreve" unicode="&#x115;" horiz-adv-x="321" 
d="M285 246h-190v-137q0 -60 61 -60h12q61 0 61 60v62h56v-60q0 -117 -117 -117h-14q-117 0 -117 117v315q0 117 117 117h14q117 0 117 -117v-180zM95 428v-127h132v127q0 61 -60 61h-11q-61 0 -61 -61zM80 657v27h43v-27q0 -34 36 -34h6q36 0 36 34v27h43v-27
q0 -75 -76 -75h-12q-76 0 -76 75z" />
    <glyph glyph-name="Edotaccent" unicode="&#x116;" horiz-adv-x="293" 
d="M178 809v-64h-52v64h52zM46 700h211v-56h-151v-259h146v-56h-146v-273h153v-56h-213v700z" />
    <glyph glyph-name="edotaccent" unicode="&#x117;" horiz-adv-x="321" 
d="M285 246h-190v-137q0 -60 61 -60h12q61 0 61 60v62h56v-60q0 -117 -117 -117h-14q-117 0 -117 117v315q0 117 117 117h14q117 0 117 -117v-180zM95 428v-127h132v127q0 61 -60 61h-11q-61 0 -61 -61zM187 664v-79h-52v79h52z" />
    <glyph glyph-name="Eogonek" unicode="&#x118;" horiz-adv-x="293" 
d="M46 700h211v-56h-151v-259h146v-56h-146v-273h153v-56h-12l-7 -13q-13 -22 -13 -34v-2q0 -12 13 -12h26v-38h-38q-46 0 -46 40v5q0 18 21 51l2 3h-159v700z" />
    <glyph glyph-name="eogonek" unicode="&#x119;" horiz-adv-x="321" 
d="M285 246h-190v-137q0 -61 61 -61h12q61 0 61 61v62h56v-60q0 -39 -16 -69q-1 -1 -13 -25l-14 -28q-14 -24 -14 -37q0 -12 13 -12h26v-38h-37q-46 0 -46 40v4q0 19 19 52q-16 -4 -35 -4h-14q-117 0 -117 117v315q0 117 117 117h14q117 0 117 -117v-180zM95 428v-128h132
v128q0 61 -60 61h-11q-61 0 -61 -61z" />
    <glyph glyph-name="Ecaron" unicode="&#x11a;" horiz-adv-x="293" 
d="M245 835l-65 -90h-53l-66 90h40l52 -53l52 53h40zM46 700h211v-56h-151v-259h146v-56h-146v-273h153v-56h-213v700z" />
    <glyph glyph-name="ecaron" unicode="&#x11b;" horiz-adv-x="321" 
d="M285 246h-190v-137q0 -60 61 -60h12q61 0 61 60v62h56v-60q0 -117 -117 -117h-14q-117 0 -117 117v315q0 117 117 117h14q117 0 117 -117v-180zM95 428v-127h132v127q0 61 -60 61h-11q-61 0 -61 -61zM250 687l-61 -102h-53l-62 102h40l48 -62l48 62h40z" />
    <glyph glyph-name="Gbreve" unicode="&#x11e;" horiz-adv-x="359" 
d="M97 810v17h42v-13q0 -32 37 -32h10q36 0 36 32v13h43v-17q0 -68 -76 -68h-16q-76 0 -76 68zM259 309h-79v56h138v-248q0 -123 -122 -123h-31q-123 0 -123 123v467q0 122 123 122h31q121 0 121 -121v-103h-59v104q0 64 -65 64h-26q-65 0 -65 -64v-472q0 -64 65 -64h28
q64 0 64 64v195z" />
    <glyph glyph-name="gbreve" unicode="&#x11f;" horiz-adv-x="330" 
d="M289 537v-544q0 -107 -110 -107h-36q-102 0 -102 99v24h53v-22q0 -50 51 -50h36q50 0 50 50v103q-46 -40 -97 -40h-2q-46 0 -70 26t-24 72v296q0 47 24 73t70 26h2q53 0 97 -42v36h58zM231 137v315q-43 36 -80 36h-2q-54 0 -54 -50v-283q0 -51 54 -51h2q38 0 80 33z
M90 657v27h43v-27q0 -34 36 -34h6q36 0 36 34v27h43v-27q0 -75 -76 -75h-12q-76 0 -76 75z" />
    <glyph glyph-name="Gdotaccent" unicode="&#x120;" horiz-adv-x="359" 
d="M207 809v-64h-52v64h52zM259 309h-79v56h138v-248q0 -123 -122 -123h-31q-123 0 -123 123v467q0 122 123 122h31q121 0 121 -121v-103h-59v104q0 64 -65 64h-26q-65 0 -65 -64v-472q0 -64 65 -64h28q64 0 64 64v195z" />
    <glyph glyph-name="gdotaccent" unicode="&#x121;" horiz-adv-x="330" 
d="M289 537v-544q0 -107 -110 -107h-36q-102 0 -102 99v24h53v-22q0 -50 51 -50h36q50 0 50 50v103q-46 -40 -97 -40h-2q-46 0 -70 26t-24 72v296q0 47 24 73t70 26h2q53 0 97 -42v36h58zM231 137v315q-43 36 -80 36h-2q-54 0 -54 -50v-283q0 -51 54 -51h2q38 0 80 33z
M197 664v-79h-52v79h52z" />
    <glyph glyph-name="Gcommaaccent" unicode="&#x122;" horiz-adv-x="359" 
d="M259 309h-79v56h138v-248q0 -123 -122 -123h-31q-123 0 -123 123v467q0 122 123 122h31q121 0 121 -121v-103h-59v104q0 64 -65 64h-26q-65 0 -65 -64v-472q0 -64 65 -64h28q64 0 64 64v195zM207 -45v-50q0 -41 -23 -71l-14 -18l-17 11l9 15q12 21 14 38h-18v75h49z" />
    <glyph glyph-name="gcommaaccent" unicode="&#x123;" horiz-adv-x="330" 
d="M289 537v-544q0 -107 -110 -107h-36q-102 0 -102 99v24h53v-22q0 -50 51 -50h36q50 0 50 50v103q-46 -40 -97 -40h-2q-46 0 -70 26t-24 72v296q0 47 24 73t70 26h2q53 0 97 -42v36h58zM231 137v315q-43 36 -80 36h-2q-54 0 -54 -50v-283q0 -51 54 -51h2q38 0 80 33z
M145 585v50q0 41 23 71l14 18l17 -11l-9 -15q-13 -23 -15 -38h19v-75h-49z" />
    <glyph glyph-name="Hbar" unicode="&#x126;" horiz-adv-x="393" 
d="M10 533v53h49v114h60v-117h154v117h60v-114h53v-53h-53v-533h-60v329h-154v-329h-60v533h-49zM119 385h154v151h-154v-151z" />
    <glyph glyph-name="hbar" unicode="&#x127;" horiz-adv-x="341" 
d="M51 0v595h-40v46h40v69h57v-69h108v-46h-108v-95q52 43 99 43h3q90 0 90 -92v-451h-57v440q0 49 -50 49h-1q-37 0 -84 -34v-455h-57z" />
    <glyph glyph-name="Imacron" unicode="&#x12a;" horiz-adv-x="154" 
d="M107 700v-700h-60v700h60zM-13 801h182v-43h-182v43z" />
    <glyph glyph-name="imacron" unicode="&#x12b;" horiz-adv-x="146" 
d="M44 0v537h58v-537h-58zM-17 650h182v-50h-182v50z" />
    <glyph glyph-name="Ibreve" unicode="&#x12c;" horiz-adv-x="154" 
d="M107 700v-700h-60v700h60zM-6 810v17h42v-13q0 -32 37 -32h10q36 0 36 32v13h43v-17q0 -68 -76 -68h-16q-76 0 -76 68z" />
    <glyph glyph-name="ibreve" unicode="&#x12d;" horiz-adv-x="146" 
d="M44 0v537h58v-537h-58zM-8 657v27h43v-27q0 -34 36 -34h6q36 0 36 34v27h43v-27q0 -75 -76 -75h-12q-76 0 -76 75z" />
    <glyph glyph-name="Iogonek" unicode="&#x12e;" horiz-adv-x="154" 
d="M107 700v-700h-7l-7 -13q-13 -22 -13 -34v-2q0 -12 13 -12h26v-38h-38q-46 0 -46 40v5q0 18 21 51l2 3h-11v700h60z" />
    <glyph glyph-name="iogonek" unicode="&#x12f;" horiz-adv-x="146" 
d="M44 0v537h58v-537h-6l-7 -13q-13 -22 -13 -34v-2q0 -12 13 -12h26v-38h-38q-46 0 -46 40v5q0 18 21 51l2 3h-10zM43 601v76h60v-76h-60z" />
    <glyph glyph-name="Idotaccent" unicode="&#x130;" horiz-adv-x="154" 
d="M107 700v-700h-60v700h60zM103 809v-64h-52v64h52z" />
    <glyph glyph-name="dotlessi" unicode="&#x131;" horiz-adv-x="146" 
d="M44 0v537h58v-537h-58z" />
    <glyph glyph-name="Kcommaaccent" unicode="&#x136;" horiz-adv-x="335" 
d="M322 0h-66l-150 345v-345h-60v700h60v-341l156 341h64l-161 -344zM193 -45v-50q0 -41 -23 -71l-14 -18l-17 11l9 15q12 21 14 38h-18v75h49z" />
    <glyph glyph-name="kcommaaccent" unicode="&#x137;" horiz-adv-x="303" 
d="M234 537h61l-140 -262l137 -275h-64l-129 268v-268h-57v710h57v-433zM181 -45v-50q0 -41 -23 -71l-14 -18l-17 11l9 15q12 21 14 38h-18v75h49z" />
    <glyph glyph-name="Lacute" unicode="&#x139;" horiz-adv-x="270" 
d="M44 745l45 82h59l-65 -82h-39zM46 700h60v-644h143v-56h-203v700z" />
    <glyph glyph-name="lacute" unicode="&#x13a;" horiz-adv-x="146" 
d="M54 737l39 102h59l-60 -102h-38zM44 0v710h58v-710h-58z" />
    <glyph glyph-name="Lcommaaccent" unicode="&#x13b;" horiz-adv-x="270" 
d="M46 700h60v-644h143v-56h-203v700zM158 -45v-50q0 -41 -23 -71l-14 -18l-17 11l9 15q12 21 14 38h-18v75h49z" />
    <glyph glyph-name="lcommaaccent" unicode="&#x13c;" horiz-adv-x="146" 
d="M44 0v710h58v-710h-58zM99 -45v-50q0 -41 -23 -71l-14 -18l-17 11l9 15q12 21 14 38h-18v75h49z" />
    <glyph glyph-name="Lcaron" unicode="&#x13d;" horiz-adv-x="279" 
d="M141 582v117h47l-19 -117h-28zM55 700h60v-644h143v-56h-203v700z" />
    <glyph glyph-name="lcaron" unicode="&#x13e;" horiz-adv-x="146" 
d="M136 592v117h47l-19 -117h-28zM44 0v710h58v-710h-58z" />
    <glyph glyph-name="Ldot" unicode="&#x13f;" horiz-adv-x="279" 
d="M224 388v-79h-48v79h48zM55 700h60v-644h143v-56h-203v700z" />
    <glyph glyph-name="ldot" unicode="&#x140;" horiz-adv-x="177" 
d="M185 392v-79h-46v79h46zM44 0v710h58v-710h-58z" />
    <glyph glyph-name="Lslash" unicode="&#x141;" horiz-adv-x="274" 
d="M50 700h60v-301l69 38v-54l-69 -38v-289h143v-56h-203v313l-44 -24v54l44 24v333z" />
    <glyph glyph-name="lslash" unicode="&#x142;" horiz-adv-x="161" 
d="M51 0v308l-43 -29v54l43 29v348h58v-309l45 31v-54l-45 -30v-348h-58z" />
    <glyph glyph-name="Nacute" unicode="&#x143;" horiz-adv-x="375" 
d="M259 0l-158 577l2 -276v-301h-57v700h76l152 -561l-1 266v295h57v-700h-71zM169 745l45 82h59l-65 -82h-39z" />
    <glyph glyph-name="nacute" unicode="&#x144;" 
d="M146 585l39 102h59l-60 -102h-38zM42 0v537h57v-37q52 43 99 43h3q90 0 90 -92v-451h-57v440q0 49 -50 49h-1q-37 0 -84 -34v-455h-57z" />
    <glyph glyph-name="Ncommaaccent" unicode="&#x145;" horiz-adv-x="375" 
d="M330 0h-71l-158 577l2 -276v-301h-57v700h76l152 -561l-1 266v295h57v-700zM213 -45v-50q0 -41 -23 -71l-14 -18l-17 11l9 15q12 21 14 38h-18v75h49z" />
    <glyph glyph-name="ncommaaccent" unicode="&#x146;" 
d="M42 0v537h57v-37q52 43 99 43h3q90 0 90 -92v-451h-57v440q0 49 -50 49h-1q-37 0 -84 -34v-455h-57zM191 -45v-50q0 -41 -23 -71l-14 -18l-17 11l9 15q12 21 14 38h-18v75h49z" />
    <glyph glyph-name="Ncaron" unicode="&#x147;" horiz-adv-x="375" 
d="M259 0l-158 577l2 -276v-301h-57v700h76l152 -561l-1 266v295h57v-700h-71zM280 835l-65 -90h-53l-66 90h40l52 -53l52 53h40z" />
    <glyph glyph-name="ncaron" unicode="&#x148;" 
d="M254 687l-61 -102h-53l-62 102h40l48 -62l48 62h40zM42 0v537h57v-37q52 43 99 43h3q90 0 90 -92v-451h-57v440q0 49 -50 49h-1q-37 0 -84 -34v-455h-57z" />
    <glyph glyph-name="Omacron" unicode="&#x14c;" horiz-adv-x="362" 
d="M90 801h182v-43h-182v43zM320 117q0 -123 -123 -123h-32q-123 0 -123 123v467q0 122 123 122h32q123 0 123 -122v-467zM260 586q0 64 -65 64h-28q-65 0 -65 -64v-472q0 -64 65 -64h28q65 0 65 64v472z" />
    <glyph glyph-name="omacron" unicode="&#x14d;" horiz-adv-x="328" 
d="M74 650h182v-50h-182v50zM175 -6h-21q-117 0 -117 117v315q0 117 117 117h21q116 0 116 -117v-315q0 -117 -116 -117zM174 489h-19q-60 0 -60 -61v-319q0 -60 60 -60h19q60 0 60 60v319q0 61 -60 61z" />
    <glyph glyph-name="Obreve" unicode="&#x14e;" horiz-adv-x="362" 
d="M98 810v17h42v-13q0 -32 37 -32h10q36 0 36 32v13h43v-17q0 -68 -76 -68h-16q-76 0 -76 68zM320 117q0 -123 -123 -123h-32q-123 0 -123 123v467q0 122 123 122h32q123 0 123 -122v-467zM260 586q0 64 -65 64h-28q-65 0 -65 -64v-472q0 -64 65 -64h28q65 0 65 64v472z
" />
    <glyph glyph-name="obreve" unicode="&#x14f;" horiz-adv-x="328" 
d="M175 -6h-21q-117 0 -117 117v315q0 117 117 117h21q116 0 116 -117v-315q0 -117 -116 -117zM174 489h-19q-60 0 -60 -61v-319q0 -60 60 -60h19q60 0 60 60v319q0 61 -60 61zM83 657v27h43v-27q0 -34 36 -34h6q36 0 36 34v27h43v-27q0 -75 -76 -75h-12q-76 0 -76 75z" />
    <glyph glyph-name="Ohungarumlaut" unicode="&#x150;" horiz-adv-x="362" 
d="M320 117q0 -123 -123 -123h-32q-123 0 -123 123v467q0 122 123 122h32q123 0 123 -122v-467zM260 586q0 64 -65 64h-28q-65 0 -65 -64v-472q0 -64 65 -64h28q65 0 65 64v472zM127 745l42 82h55l-65 -82h-32zM205 745l42 82h55l-65 -82h-32z" />
    <glyph glyph-name="ohungarumlaut" unicode="&#x151;" horiz-adv-x="328" 
d="M111 585l35 102h55l-59 -102h-31zM188 585l36 102h55l-59 -102h-32zM175 -6h-21q-117 0 -117 117v315q0 117 117 117h21q116 0 116 -117v-315q0 -117 -116 -117zM174 489h-19q-60 0 -60 -61v-319q0 -60 60 -60h19q60 0 60 60v319q0 61 -60 61z" />
    <glyph glyph-name="OE" unicode="&#x152;" horiz-adv-x="498" 
d="M188 700h274v-56h-151v-259h146v-56h-146v-273h153v-56h-276q-71 0 -108.5 36.5t-37.5 106.5v414q0 70 37.5 106.5t108.5 36.5zM251 56v588h-60q-42 0 -65.5 -22t-23.5 -64v-416q0 -42 23.5 -64t65.5 -22h60z" />
    <glyph glyph-name="oe" unicode="&#x153;" horiz-adv-x="517" 
d="M350 543h14q117 0 117 -118v-179h-190v-137q0 -60 60 -60h13q60 0 60 60v62h57v-60q0 -117 -117 -117h-14q-68 0 -88 41q-22 -41 -87 -41h-21q-117 0 -117 116v316q0 117 117 117h21q64 0 87 -42q21 42 88 42zM175 488h-21q-59 0 -59 -59v-321q0 -59 59 -59h20
q59 0 59 59v321q0 59 -58 59zM291 427v-126h132v126q0 62 -61 62h-11q-60 0 -60 -62z" />
    <glyph glyph-name="Racute" unicode="&#x154;" horiz-adv-x="354" 
d="M242 334q67 -18 67 -99v-235h-60v233q0 73 -75 73h-68v-306h-60v700h139q123 0 123 -122v-134q0 -86 -66 -110zM248 581q0 63 -65 63h-77v-283h69q73 0 73 72v148zM152 745l45 82h59l-65 -82h-39z" />
    <glyph glyph-name="racute" unicode="&#x155;" horiz-adv-x="206" 
d="M92 585l39 102h59l-60 -102h-38zM42 0v537h57v-54q35 58 92 59v-65q-57 -4 -92 -39v-438h-57z" />
    <glyph glyph-name="Rcommaaccent" unicode="&#x156;" horiz-adv-x="354" 
d="M242 334q67 -18 67 -99v-235h-60v233q0 73 -75 73h-68v-306h-60v700h139q123 0 123 -122v-134q0 -86 -66 -110zM248 581q0 63 -65 63h-77v-283h69q73 0 73 72v148zM197 -45v-50q0 -41 -23 -71l-14 -18l-17 11l9 15q12 21 14 38h-18v75h49z" />
    <glyph glyph-name="rcommaaccent" unicode="&#x157;" horiz-adv-x="206" 
d="M42 0v537h57v-54q35 58 92 59v-65q-57 -4 -92 -39v-438h-57zM95 -45v-50q0 -41 -23 -71l-14 -18l-17 11l9 15q12 21 14 38h-18v75h49z" />
    <glyph glyph-name="Rcaron" unicode="&#x158;" horiz-adv-x="354" 
d="M263 835l-65 -90h-53l-66 90h40l52 -53l52 53h40zM242 334q67 -18 67 -99v-235h-60v233q0 73 -75 73h-68v-306h-60v700h139q123 0 123 -122v-134q0 -86 -66 -110zM248 581q0 63 -65 63h-77v-283h69q73 0 73 72v148z" />
    <glyph glyph-name="rcaron" unicode="&#x159;" horiz-adv-x="206" 
d="M200 687l-61 -102h-53l-62 102h40l48 -62l48 62h40zM42 0v537h57v-54q35 58 92 59v-65q-57 -4 -92 -39v-438h-57z" />
    <glyph glyph-name="Sacute" unicode="&#x15a;" horiz-adv-x="345" 
d="M244 346q35 -26 49 -53.5t14 -71.5v-106q0 -121 -123 -121h-22q-122 0 -122 120v144h59v-146q0 -62 65 -62h18q65 0 65 62v107q0 28 -9 44t-31 33l-103 77q-35 26 -49 54.5t-14 70.5v87q0 121 123 121h19q122 0 122 -120v-123h-59v125q0 62 -65 62h-15q-65 0 -65 -62v-89
q0 -27 9 -43.5t31 -33.5zM154 745l45 82h59l-65 -82h-39z" />
    <glyph glyph-name="sacute" unicode="&#x15b;" horiz-adv-x="316" 
d="M137 585l39 102h59l-60 -102h-38zM222 353v82q0 55 -57 55h-14q-57 0 -57 -55v-49q0 -40 34 -61l91 -56q33 -21 47 -44.5t14 -60.5v-57q0 -113 -114 -113h-16q-113 0 -113 112v82h56v-86q0 -54 57 -54h17q56 0 56 54v55q0 40 -34 60l-91 57q-33 21 -46.5 44t-13.5 61v51
q0 113 114 113h14q112 0 112 -112v-78h-56z" />
    <glyph glyph-name="Scedilla" unicode="&#x15e;" horiz-adv-x="345" 
d="M244 346q35 -26 49 -53.5t14 -71.5v-106q0 -112 -107 -120l-21 -86h-53l36 85q-122 0 -122 120v144h59v-146q0 -62 65 -62h18q65 0 65 62v107q0 28 -9 44t-31 33l-103 77q-35 26 -49 54.5t-14 70.5v87q0 121 123 121h19q122 0 122 -120v-123h-59v125q0 62 -65 62h-15
q-65 0 -65 -62v-89q0 -27 9 -43.5t31 -33.5z" />
    <glyph glyph-name="scedilla" unicode="&#x15f;" horiz-adv-x="316" 
d="M222 353v82q0 55 -57 55h-14q-57 0 -57 -55v-49q0 -40 34 -61l91 -56q33 -21 47 -44.5t14 -60.5v-57q0 -106 -101 -112l-21 -86h-53l36 85q-104 4 -104 112v82h56v-86q0 -54 57 -54h17q56 0 56 54v55q0 40 -34 60l-91 57q-33 21 -46.5 44t-13.5 61v51q0 113 114 113h14
q112 0 112 -112v-78h-56z" />
    <glyph glyph-name="Scaron" unicode="&#x160;" horiz-adv-x="345" 
d="M244 346q35 -26 49 -53.5t14 -71.5v-106q0 -121 -123 -121h-22q-122 0 -122 120v144h59v-146q0 -62 65 -62h18q65 0 65 62v107q0 28 -9 44t-31 33l-103 77q-35 26 -49 54.5t-14 70.5v87q0 121 123 121h19q122 0 122 -120v-123h-59v125q0 62 -65 62h-15q-65 0 -65 -62v-89
q0 -27 9 -43.5t31 -33.5zM266 835l-65 -90h-53l-66 90h40l52 -53l52 53h40z" />
    <glyph glyph-name="scaron" unicode="&#x161;" horiz-adv-x="316" 
d="M245 687l-61 -102h-53l-62 102h40l48 -62l48 62h40zM222 353v82q0 55 -57 55h-14q-57 0 -57 -55v-49q0 -40 34 -61l91 -56q33 -21 47 -44.5t14 -60.5v-57q0 -113 -114 -113h-16q-113 0 -113 112v82h56v-86q0 -54 57 -54h17q56 0 56 54v55q0 40 -34 60l-91 57
q-33 21 -46.5 44t-13.5 61v51q0 113 114 113h14q112 0 112 -112v-78h-56z" />
    <glyph glyph-name="Tcommaaccent" unicode="&#x162;" horiz-adv-x="304" 
d="M182 0h-60v644h-110v56h280v-56h-110v-644zM178 -45v-50q0 -41 -23 -71l-14 -18l-17 11l9 15q12 21 14 38h-18v75h49z" />
    <glyph glyph-name="Tcommaaccent" unicode="&#x21a;" horiz-adv-x="304" 
d="M182 0h-60v644h-110v56h280v-56h-110v-644zM178 -45v-50q0 -41 -23 -71l-14 -18l-17 11l9 15q12 21 14 38h-18v75h49z" />
    <glyph glyph-name="tcommaaccent" unicode="&#x163;" horiz-adv-x="191" 
d="M118 484v-484h-58v484h-39v53h39v90h58v-90h62v-53h-62zM116 -45v-50q0 -41 -23 -71l-14 -18l-17 11l9 15q12 21 14 38h-18v75h49z" />
    <glyph glyph-name="tcommaaccent" unicode="&#x21b;" horiz-adv-x="191" 
d="M118 484v-484h-58v484h-39v53h39v90h58v-90h62v-53h-62zM116 -45v-50q0 -41 -23 -71l-14 -18l-17 11l9 15q12 21 14 38h-18v75h49z" />
    <glyph glyph-name="Tcaron" unicode="&#x164;" horiz-adv-x="304" 
d="M245 835l-65 -90h-53l-66 90h40l52 -53l52 53h40zM182 0h-60v644h-110v56h280v-56h-110v-644z" />
    <glyph glyph-name="tcaron" unicode="&#x165;" horiz-adv-x="190" 
d="M151 592v117h47l-19 -117h-28zM118 484v-484h-58v484h-39v53h39v90h58v-90h62v-53h-62z" />
    <glyph glyph-name="Umacron" unicode="&#x16a;" horiz-adv-x="361" 
d="M89 801h182v-43h-182v43zM317 700v-583q0 -123 -124 -123h-26q-123 0 -123 123v583h60v-585q0 -65 66 -65h21q66 0 66 65v585h60z" />
    <glyph glyph-name="umacron" unicode="&#x16b;" 
d="M290 537v-537h-58v37q-52 -43 -99 -43h-3q-90 0 -90 92v451h58v-440q0 -48 49 -48h2q36 0 83 33v455h58zM74 650h182v-50h-182v50z" />
    <glyph glyph-name="Ubreve" unicode="&#x16c;" horiz-adv-x="361" 
d="M97 807v17h42v-13q0 -32 37 -32h10q36 0 36 32v13h43v-17q0 -68 -76 -68h-16q-76 0 -76 68zM317 700v-583q0 -123 -124 -123h-26q-123 0 -123 123v583h60v-585q0 -65 66 -65h21q66 0 66 65v585h60z" />
    <glyph glyph-name="ubreve" unicode="&#x16d;" 
d="M290 537v-537h-58v37q-52 -43 -99 -43h-3q-90 0 -90 92v451h58v-440q0 -48 49 -48h2q36 0 83 33v455h58zM84 657v27h43v-27q0 -34 36 -34h6q36 0 36 34v27h43v-27q0 -75 -76 -75h-12q-76 0 -76 75z" />
    <glyph glyph-name="Uring" unicode="&#x16e;" horiz-adv-x="361" 
d="M317 700v-583q0 -123 -124 -123h-26q-123 0 -123 123v583h60v-585q0 -65 66 -65h21q66 0 66 65v585h60zM272 798v-5q0 -49 -60 -49h-64q-60 0 -60 49v5q0 49 60 49h64q60 0 60 -49zM251 794v3q0 31 -42 31h-58q-42 0 -42 -31v-3q0 -31 42 -31h58q42 0 42 31z" />
    <glyph glyph-name="uring" unicode="&#x16f;" 
d="M245 640v-5q0 -51 -61 -51h-38q-61 0 -61 51v5q0 51 61 51h38q61 0 61 -51zM224 635v5q0 32 -43 32h-32q-43 0 -43 -32v-5q0 -17 10 -24.5t34 -7.5h31q43 0 43 32zM290 537v-537h-58v37q-52 -43 -99 -43h-3q-90 0 -90 92v451h58v-440q0 -48 49 -48h2q36 0 83 33v455h58z
" />
    <glyph glyph-name="Uhungarumlaut" unicode="&#x170;" horiz-adv-x="361" 
d="M317 700v-583q0 -123 -124 -123h-26q-123 0 -123 123v583h60v-585q0 -65 66 -65h21q66 0 66 65v585h60zM126 745l42 82h55l-65 -82h-32zM204 745l42 82h55l-65 -82h-32z" />
    <glyph glyph-name="uhungarumlaut" unicode="&#x171;" 
d="M290 537v-537h-58v37q-52 -43 -99 -43h-3q-90 0 -90 92v451h58v-440q0 -48 49 -48h2q36 0 83 33v455h58zM111 585l35 102h55l-59 -102h-31zM188 585l36 102h55l-59 -102h-32z" />
    <glyph glyph-name="Uogonek" unicode="&#x172;" horiz-adv-x="361" 
d="M317 700v-583q0 -119 -117 -123l-3 -7q-13 -22 -13 -34v-2q0 -12 13 -12h26v-38h-38q-46 0 -46 40v5q0 17 19 48q-114 4 -114 123v583h60v-585q0 -65 66 -65h21q66 0 66 65v585h60z" />
    <glyph glyph-name="uogonek" unicode="&#x173;" 
d="M290 537v-537h-7l-7 -13q-13 -22 -13 -34v-2q0 -12 13 -12h26v-38h-38q-46 0 -46 40v5q0 18 21 51l2 3h-9v37q-52 -43 -99 -43h-3q-90 0 -90 92v451h58v-440q0 -48 49 -48h2q36 0 83 33v455h58z" />
    <glyph glyph-name="Wcircumflex" unicode="&#x174;" horiz-adv-x="537" 
d="M299 700l75 -615l76 615h58l-95 -700h-76l-69 554l-68 -554h-76l-95 700h61l74 -618l76 618h59zM294 835l65 -90h-40l-52 52l-52 -52h-40l66 90h53z" />
    <glyph glyph-name="wcircumflex" unicode="&#x175;" horiz-adv-x="459" 
d="M258 537l66 -433l58 433h55l-85 -538h-59l-63 422l-64 -422h-59l-87 538h57l59 -434l66 434h56zM257 687l61 -102h-40l-48 61l-48 -61h-40l62 102h53z" />
    <glyph glyph-name="Ycircumflex" unicode="&#x176;" horiz-adv-x="315" 
d="M303 700l-115 -458v-242h-60v240l-116 460h62l84 -371l86 371h59zM186 835l65 -90h-40l-52 52l-52 -52h-40l66 90h53z" />
    <glyph glyph-name="ycircumflex" unicode="&#x177;" horiz-adv-x="310" 
d="M160 -110h-56l24 111l-109 536h58l79 -428l79 428h56zM185 687l61 -102h-40l-48 61l-48 -61h-40l62 102h53z" />
    <glyph glyph-name="Ydieresis" unicode="&#x178;" horiz-adv-x="315" 
d="M303 700l-115 -458v-242h-60v240l-116 460h62l84 -371l86 371h59zM129 814v-69h-51v69h51zM188 745v69h51v-69h-51z" />
    <glyph glyph-name="Zacute" unicode="&#x179;" horiz-adv-x="283" 
d="M197 644h-167v56h227v-55l-170 -589h173v-56h-234v55zM124 745l45 82h59l-65 -82h-39z" />
    <glyph glyph-name="zacute" unicode="&#x17a;" horiz-adv-x="252" 
d="M107 585l39 102h59l-60 -102h-38zM171 484h-148v53h207v-52l-152 -431h153v-54h-211v52z" />
    <glyph glyph-name="Zdotaccent" unicode="&#x17b;" horiz-adv-x="283" 
d="M169 809v-64h-52v64h52zM197 644h-167v56h227v-55l-170 -589h173v-56h-234v55z" />
    <glyph glyph-name="zdotaccent" unicode="&#x17c;" horiz-adv-x="252" 
d="M171 484h-148v53h207v-52l-152 -431h153v-54h-211v52zM153 664v-79h-52v79h52z" />
    <glyph glyph-name="Zcaron" unicode="&#x17d;" horiz-adv-x="283" 
d="M235 835l-65 -90h-53l-66 90h40l52 -53l52 53h40zM197 644h-167v56h227v-55l-170 -589h173v-56h-234v55z" />
    <glyph glyph-name="zcaron" unicode="&#x17e;" horiz-adv-x="252" 
d="M215 687l-61 -102h-53l-62 102h40l48 -62l48 62h40zM171 484h-148v53h207v-52l-152 -431h153v-54h-211v52z" />
    <glyph glyph-name="Aringacute" unicode="&#x1fa;" horiz-adv-x="352" 
d="M269 707v-4q0 -45 -49 -50l109 -653h-59l-21 132h-148l-20 -132h-58l109 653q-48 5 -48 50v4q0 49 60 49h64q61 0 61 -49zM175 605l-65 -418h131zM247 702v6q0 29 -41 29h-60q-41 0 -41 -29v-6q0 -30 41 -30h60q41 0 41 30zM160 780l45 82h59l-65 -82h-39z" />
    <glyph glyph-name="aringacute" unicode="&#x1fb;" horiz-adv-x="317" 
d="M34 85v99q0 46 18 69.5t62 40.5l106 39v99q0 57 -58 57h-7q-59 0 -59 -57v-69h-56v67q0 113 115 113h8q114 0 114 -113v-430h-57v36q-51 -42 -97 -42h-2q-87 0 -87 91zM140 49q33 0 80 31v199l-82 -31q-26 -10 -36 -24.5t-10 -40.5v-87q0 -47 47 -47h1zM241 640v-5
q0 -51 -61 -51h-38q-61 0 -61 51v5q0 51 61 51h38q61 0 61 -51zM220 635v5q0 32 -43 32h-32q-43 0 -43 -32v-5q0 -17 10 -24.5t34 -7.5h31q43 0 43 32zM143 723l39 102h59l-60 -102h-38z" />
    <glyph glyph-name="AEacute" unicode="&#x1fc;" horiz-adv-x="459" 
d="M172 700h251v-56h-150v-259h145v-56h-145v-273h152v-56h-213v132h-110l-28 -132h-59zM113 187h99v465zM232 745l45 82h59l-65 -82h-39z" />
    <glyph glyph-name="aeacute" unicode="&#x1fd;" horiz-adv-x="512" 
d="M346 543h14q116 0 116 -117v-180h-190v-137q0 -60 61 -60h13q60 0 60 60v66h56v-64q0 -117 -116 -117h-14q-74 0 -102 48q-40 -27 -62.5 -37.5t-49.5 -10.5h-1q-88 0 -88 91v105q0 46 18 69t62 39l106 39v95q0 57 -58 57h-7q-59 0 -59 -57v-69h-57v67q0 113 116 113h8
q59 0 86 -41q26 41 88 41zM230 81q-1 4 -1 18v184l-82 -30q-26 -10 -36 -24t-10 -40v-93q0 -47 47 -47h1q34 0 81 32zM286 428v-127h133v127q0 61 -61 61h-11q-61 0 -61 -61zM240 585l39 102h59l-60 -102h-38z" />
    <glyph glyph-name="Oslashacute" unicode="&#x1fe;" horiz-adv-x="362" 
d="M320 117q0 -123 -123 -123h-32q-123 0 -123 123v467q0 122 123 122h32q123 0 123 -122v-467zM261 211v345h-1v5l-143 -494q14 -17 50 -17h28q65 0 65 64zM102 143v-4l142 494q-15 17 -49 17h-28q-65 0 -65 -64l-1 -126v-317h1zM162 745l45 82h59l-65 -82h-39z" />
    <glyph glyph-name="oslashacute" unicode="&#x1ff;" horiz-adv-x="328" 
d="M175 -6h-21q-117 0 -117 117v315q0 117 117 117h21q116 0 116 -117v-315q0 -117 -116 -117zM155 489q-60 0 -60 -61v-31l-2 -283h2v-17l119 381q-16 11 -40 11h-19zM233 428q0 2 -0.5 5t-0.5 4l-117 -378q14 -10 40 -10h19q59 0 59 60v34l1 280h-1v5zM145 585l39 102h59
l-60 -102h-38z" />
    <glyph glyph-name="Scommaaccent" unicode="&#x218;" horiz-adv-x="345" 
d="M244 346q35 -26 49 -53.5t14 -71.5v-106q0 -121 -123 -121h-22q-122 0 -122 120v144h59v-146q0 -62 65 -62h18q65 0 65 62v107q0 28 -9 44t-31 33l-103 77q-35 26 -49 54.5t-14 70.5v87q0 121 123 121h19q122 0 122 -120v-123h-59v125q0 62 -65 62h-15q-65 0 -65 -62v-89
q0 -27 9 -43.5t31 -33.5zM199 -45v-50q0 -41 -23 -71l-14 -18l-17 11l9 15q12 21 14 38h-18v75h49z" />
    <glyph glyph-name="scommaaccent" unicode="&#x219;" horiz-adv-x="316" 
d="M222 353v82q0 55 -57 55h-14q-57 0 -57 -55v-49q0 -40 34 -61l91 -56q33 -21 47 -44.5t14 -60.5v-57q0 -113 -114 -113h-16q-113 0 -113 112v82h56v-86q0 -54 57 -54h17q56 0 56 54v55q0 40 -34 60l-91 57q-33 21 -46.5 44t-13.5 61v51q0 113 114 113h14q112 0 112 -112
v-78h-56zM183 -45v-50q0 -41 -23 -71l-14 -18l-17 11l9 15q12 21 14 38h-18v75h49z" />
    <glyph glyph-name="schwa" unicode="&#x259;" horiz-adv-x="321" 
d="M36 110v180h190v137q0 60 -61 60h-12q-61 0 -61 -60v-62h-56v60q0 117 117 117h14q117 0 117 -117v-315q0 -117 -117 -117h-14q-117 0 -117 117zM165 47q61 0 61 61v127h-132v-127q0 -61 60 -61h11z" />
    <glyph glyph-name="circumflex" unicode="&#x2c6;" horiz-adv-x="500" 
d="M277 687l61 -102h-40l-48 61l-48 -61h-40l62 102h53z" />
    <glyph glyph-name="caron" unicode="&#x2c7;" horiz-adv-x="500" 
d="M338 687l-61 -102h-53l-62 102h40l48 -62l48 62h40z" />
    <glyph glyph-name="breve" unicode="&#x2d8;" horiz-adv-x="500" 
d="M168 657v27h43v-27q0 -34 36 -34h6q36 0 36 34v27h43v-27q0 -75 -76 -75h-12q-76 0 -76 75z" />
    <glyph glyph-name="dotaccent" unicode="&#x2d9;" horiz-adv-x="500" 
d="M276 664v-79h-52v79h52z" />
    <glyph glyph-name="ring" unicode="&#x2da;" horiz-adv-x="500" 
d="M330 640v-5q0 -51 -61 -51h-38q-61 0 -61 51v5q0 51 61 51h38q61 0 61 -51zM309 635v5q0 32 -43 32h-32q-43 0 -43 -32v-5q0 -17 10 -24.5t34 -7.5h31q43 0 43 32z" />
    <glyph glyph-name="ogonek" unicode="&#x2db;" horiz-adv-x="500" 
d="M260 10h41l-12 -23q-13 -22 -13 -34v-2q0 -12 13 -12h26v-38h-38q-46 0 -46 40v5q0 18 21 51z" />
    <glyph glyph-name="tilde" unicode="&#x2dc;" horiz-adv-x="500" 
d="M195 681h3q23 0 44 -16l31 -26q14 -11 20 -11h2q10 0 10 14v39h40v-55q0 -41 -39 -41h-4q-23 0 -44 17l-31 25q-14 11 -20 11h-2q-10 0 -10 -14v-39h-39v55q0 41 39 41z" />
    <glyph glyph-name="hungarumlaut" unicode="&#x2dd;" horiz-adv-x="500" 
d="M175 585l35 102h55l-59 -102h-31zM252 585l36 102h55l-59 -102h-32z" />
    <glyph glyph-name="commaaccent" unicode="&#x326;" horiz-adv-x="500" 
d="M269 -45v-50q0 -41 -23 -71l-14 -18l-17 11l9 15q12 21 14 38h-18v75h49z" />
    <glyph glyph-name="Wgrave" unicode="&#x1e80;" horiz-adv-x="537" 
d="M299 700l75 -615l76 615h58l-95 -700h-76l-69 554l-68 -554h-76l-95 700h61l74 -618l76 618h59zM244 827l45 -82h-39l-66 82h60z" />
    <glyph glyph-name="wgrave" unicode="&#x1e81;" horiz-adv-x="459" 
d="M258 537l66 -433l58 433h55l-85 -538h-59l-63 422l-64 -422h-59l-87 538h57l59 -434l66 434h56zM211 687l39 -102h-39l-60 102h60z" />
    <glyph glyph-name="Wacute" unicode="&#x1e82;" horiz-adv-x="537" 
d="M240 700h59l75 -615l76 615h58l-95 -700h-76l-69 554l-68 -554h-76l-95 700h61l74 -618zM248 745l45 82h59l-65 -82h-39z" />
    <glyph glyph-name="wacute" unicode="&#x1e83;" horiz-adv-x="459" 
d="M166 -1h-59l-87 538h57l59 -434l66 434h56l66 -433l58 433h55l-85 -538h-59l-63 422zM210 585l39 102h59l-60 -102h-38z" />
    <glyph glyph-name="Wdieresis" unicode="&#x1e84;" horiz-adv-x="537" 
d="M299 700l75 -615l76 615h58l-95 -700h-76l-69 554l-68 -554h-76l-95 700h61l74 -618l76 618h59zM238 814v-69h-51v69h51zM297 745v69h51v-69h-51z" />
    <glyph glyph-name="wdieresis" unicode="&#x1e85;" horiz-adv-x="459" 
d="M258 537l66 -433l58 433h55l-85 -538h-59l-63 422l-64 -422h-59l-87 538h57l59 -434l66 434h56zM260 585v84h50v-84h-50zM200 669v-84h-50v84h50z" />
    <glyph glyph-name="Ygrave" unicode="&#x1ef2;" horiz-adv-x="315" 
d="M303 700l-115 -458v-242h-60v240l-116 460h62l84 -371l86 371h59zM134 827l45 -82h-39l-66 82h60z" />
    <glyph glyph-name="ygrave" unicode="&#x1ef3;" horiz-adv-x="310" 
d="M160 -110h-56l24 111l-109 536h58l79 -428l79 428h56zM139 687l39 -102h-39l-60 102h60z" />
    <glyph glyph-name="enspace" unicode="&#x2002;" horiz-adv-x="500" 
 />
    <glyph glyph-name="emspace" unicode="&#x2003;" horiz-adv-x="1000" 
 />
    <glyph glyph-name="threeperemspace" unicode="&#x2004;" horiz-adv-x="333" 
 />
    <glyph glyph-name="fourperemspace" unicode="&#x2005;" horiz-adv-x="250" 
 />
    <glyph glyph-name="thinspace" unicode="&#x2009;" horiz-adv-x="133" 
 />
    <glyph glyph-name="hairspace" unicode="&#x200a;" horiz-adv-x="75" 
 />
    <glyph glyph-name="endash" unicode="&#x2013;" horiz-adv-x="366" 
d="M22 305h322v-51h-322v51z" />
    <glyph glyph-name="emdash" unicode="&#x2014;" horiz-adv-x="567" 
d="M22 305h512v-51h-512v51z" />
    <glyph glyph-name="quoteleft" unicode="&#x2018;" horiz-adv-x="122" 
d="M29 515v67q0 31 4.5 48t19.5 44l17 31l25 -7l-11 -26q-13 -31 -16 -57h21v-100h-60z" />
    <glyph glyph-name="quoteright" unicode="&#x2019;" horiz-adv-x="122" 
d="M92 700v-67q0 -31 -4.5 -48t-19.5 -44l-17 -31l-25 7l11 26q13 31 16 57h-21v100h60z" />
    <glyph glyph-name="quotesinglbase" unicode="&#x201a;" horiz-adv-x="122" 
d="M92 100v-67q0 -31 -4.5 -48t-19.5 -44l-17 -31l-25 7l11 26q13 31 16 57h-21v100h60z" />
    <glyph glyph-name="quotedblleft" unicode="&#x201c;" horiz-adv-x="227" 
d="M134 515v67q0 31 4.5 48t19.5 44l17 31l25 -7l-11 -26q-13 -31 -16 -57h21v-100h-60zM29 515v67q0 31 4.5 48t19.5 44l18 31l24 -7l-11 -26q-13 -31 -16 -57h21v-100h-60z" />
    <glyph glyph-name="quotedblright" unicode="&#x201d;" horiz-adv-x="227" 
d="M92 700v-67q0 -31 -4.5 -48t-19.5 -44l-17 -31l-25 7l11 26q13 31 16 57h-21v100h60zM197 700v-67q0 -31 -4.5 -48t-19.5 -44l-18 -31l-24 7l11 26q13 31 16 57h-21v100h60z" />
    <glyph glyph-name="quotedblbase" unicode="&#x201e;" horiz-adv-x="227" 
d="M92 100v-67q0 -31 -4.5 -48t-19.5 -44l-17 -31l-25 7l11 26q13 31 16 57h-21v100h60zM197 100v-67q0 -31 -4.5 -48t-19.5 -44l-18 -31l-24 7l11 26q13 31 16 57h-21v100h60z" />
    <glyph glyph-name="dagger" unicode="&#x2020;" horiz-adv-x="234" 
d="M140 348h-46l2 223l-81 -1v45l80 -3l-1 90h46l-2 -90l81 3v-45l-81 1z" />
    <glyph glyph-name="daggerdbl" unicode="&#x2021;" horiz-adv-x="234" 
d="M95 455l1 116l-81 -1v45l80 -3l-1 90h46l-2 -90l81 3v-45l-81 1l1 -116l-1 -116l81 3v-46l-81 2l2 -88h-46l1 88l-80 -2v46l81 -3z" />
    <glyph glyph-name="bullet" unicode="&#x2022;" horiz-adv-x="218" 
d="M162 390v-76q0 -39 -42 -39h-23q-41 0 -41 39v76q0 39 41 39h23q42 0 42 -39z" />
    <glyph glyph-name="ellipsis" unicode="&#x2026;" horiz-adv-x="366" 
d="M91 100v-100h-60v100h60zM212 100v-100h-60v100h60zM334 100v-100h-60v100h60z" />
    <glyph glyph-name="guilsinglleft" unicode="&#x2039;" horiz-adv-x="151" 
d="M15 280l63 152h52l-56 -152l56 -152h-49z" />
    <glyph glyph-name="guilsinglright" unicode="&#x203a;" horiz-adv-x="151" 
d="M72 432l63 -152l-66 -152h-49l56 152l-56 152h52z" />
    <glyph glyph-name="Euro" unicode="&#x20ac;" horiz-adv-x="361" 
d="M26 428h40v156q0 122 122 122h21q121 0 121 -121v-89h-59v90q0 64 -63 64h-19q-63 0 -63 -64v-158h153v-44h-153v-58h153v-45h-153v-167q0 -64 63 -64h21q63 0 63 64v97h59v-94q0 -123 -123 -123h-21q-122 0 -122 123v164h-40v45h40v58h-40v44z" />
    <glyph glyph-name="published" unicode="&#x2117;" horiz-adv-x="496" 
d="M450 542v-384q0 -88 -36 -126t-117 -38h-98q-81 0 -117 38t-36 126v384q0 88 36 126t117 38h98q81 0 117 -38t36 -126zM428 158v384q0 77 -30.5 110t-100.5 33h-98q-70 0 -100.5 -33t-30.5 -110v-384q0 -76 30.5 -109.5t100.5 -33.5h98q70 0 100.5 33.5t30.5 109.5z
M210 288v-194h-49v513h90q52 0 74.5 -20.5t22.5 -66.5v-142q0 -47 -23.5 -68.5t-73.5 -21.5h-41zM299 516q0 25 -11 34.5t-39 9.5h-39v-224h39q27 0 38.5 10.5t11.5 34.5v135z" />
    <glyph glyph-name="servicemark" unicode="&#x2120;" horiz-adv-x="446" 
d="M322 396h-33l-48 239v-239h-32v304h50l47 -248l49 248h48v-304h-33v239zM73 507v-54q0 -28 27 -28h7q28 0 28 28v29q0 24 -16 35l-52 38q-30 22 -30 60v30q0 58 58 58h18q57 0 57 -58v-50h-36v47q0 16 -6 22t-20 6h-7q-15 0 -21.5 -6t-6.5 -22v-21q0 -22 16 -35l52 -38
q30 -21 30 -60v-38q0 -57 -57 -57h-19q-58 0 -58 57v57h36z" />
    <glyph glyph-name="trademark" unicode="&#x2122;" horiz-adv-x="421" 
d="M264 396l-48 238l1 -238h-33v304h50l47 -246l50 246h47v-304h-33l1 239l-49 -239h-33zM105 396h-38v270h-52v34h142v-34h-52v-270z" />
    <glyph glyph-name="minus" unicode="&#x2212;" horiz-adv-x="314" 
d="M16 383h282v-55h-282v55z" />
    <glyph glyph-name="f_f" unicode="&#xfb00;" horiz-adv-x="382" 
d="M58 537v74q0 99 97 99h31v-54h-29q-41 0 -41 -43v-76h67v-53h-67v-484h-58v484h-35v53h35zM249 537v74q0 99 97 99h31v-54h-29q-41 0 -41 -43v-76h67v-53h-67v-484h-58v484h-35v53h35z" />
    <glyph glyph-name="fi" unicode="&#xfb01;" horiz-adv-x="337" 
d="M58 537v74q0 99 97 99h31v-54h-29q-41 0 -41 -43v-76h67v-53h-67v-484h-58v484h-35v53h35zM234 601v76h60v-76h-60zM235 0v537h58v-537h-58z" />
    <glyph glyph-name="fl" unicode="&#xfb02;" horiz-adv-x="337" 
d="M58 537v74q0 99 97 99h31v-54h-29q-41 0 -41 -43v-76h67v-53h-67v-484h-58v484h-35v53h35zM235 0v710h58v-710h-58z" />
    <glyph glyph-name="f_f_i" unicode="&#xfb03;" horiz-adv-x="528" 
d="M58 537v74q0 99 97 99h31v-54h-29q-41 0 -41 -43v-76h67v-53h-67v-484h-58v484h-35v53h35zM249 537v74q0 99 97 99h31v-54h-29q-41 0 -41 -43v-76h67v-53h-67v-484h-58v484h-35v53h35zM425 601v76h60v-76h-60zM426 0v537h58v-537h-58z" />
    <glyph glyph-name="f_f_l" unicode="&#xfb04;" horiz-adv-x="528" 
d="M58 537v74q0 99 97 99h31v-54h-29q-41 0 -41 -43v-76h67v-53h-67v-484h-58v484h-35v53h35zM249 537v74q0 99 97 99h31v-54h-29q-41 0 -41 -43v-76h67v-53h-67v-484h-58v484h-35v53h35zM426 0v710h58v-710h-58z" />
    <glyph glyph-name="Q.alt" horiz-adv-x="362" 
d="M320 584v-467q0 -28 -6 -49l41 -30l-36 -46l-32 31q-32 -29 -90 -29h-32q-123 0 -123 123v467q0 122 123 122h32q123 0 123 -122zM260 586q0 64 -65 64h-28q-65 0 -65 -64v-472q0 -64 65 -64h28q31 0 47 14l-73 63l28 32l63 -51v478z" />
    <glyph glyph-name="a.alt" 
d="M289 537v-537h-57v37q-49 -43 -98 -43h-2q-46 0 -70 26t-24 73v351q0 47 24 73t70 26h2q51 0 98 -42v36h57zM232 83v370q-44 35 -82 35q-55 0 -55 -50v-339q0 -50 55 -50q39 0 82 34z" />
    <glyph glyph-name="y.alt" horiz-adv-x="310" 
d="M160 -110h-56l24 111l-109 536h58l79 -428l79 428h56z" />
    <glyph glyph-name="aacute.alt" 
d="M153 585l39 102h59l-60 -102h-38zM289 537v-537h-57v37q-49 -43 -98 -43h-2q-46 0 -70 26t-24 73v351q0 47 24 73t70 26h2q51 0 98 -42v36h57zM232 83v370q-44 35 -82 35q-55 0 -55 -50v-339q0 -50 55 -50q39 0 82 34z" />
    <glyph glyph-name="abreve.alt" 
d="M289 537v-537h-57v37q-49 -43 -98 -43h-2q-46 0 -70 26t-24 73v351q0 47 24 73t70 26h2q51 0 98 -42v36h57zM232 83v370q-44 35 -82 35q-55 0 -55 -50v-339q0 -50 55 -50q39 0 82 34zM91 657v27h43v-27q0 -34 36 -34h6q36 0 36 34v27h43v-27q0 -75 -76 -75h-12
q-76 0 -76 75z" />
    <glyph glyph-name="acircumflex.alt" 
d="M200 687l61 -102h-40l-48 61l-48 -61h-40l62 102h53zM289 537v-537h-57v37q-49 -43 -98 -43h-2q-46 0 -70 26t-24 73v351q0 47 24 73t70 26h2q51 0 98 -42v36h57zM232 83v370q-44 35 -82 35q-55 0 -55 -50v-339q0 -50 55 -50q39 0 82 34z" />
    <glyph glyph-name="adieresis.alt" 
d="M203 585v84h50v-84h-50zM143 669v-84h-50v84h50zM289 537v-537h-57v37q-49 -43 -98 -43h-2q-46 0 -70 26t-24 73v351q0 47 24 73t70 26h2q51 0 98 -42v36h57zM232 83v370q-44 35 -82 35q-55 0 -55 -50v-339q0 -50 55 -50q39 0 82 34z" />
    <glyph glyph-name="agrave.alt" 
d="M289 537v-537h-57v37q-49 -43 -98 -43h-2q-46 0 -70 26t-24 73v351q0 47 24 73t70 26h2q51 0 98 -42v36h57zM232 83v370q-44 35 -82 35q-55 0 -55 -50v-339q0 -50 55 -50q39 0 82 34zM154 687l39 -102h-39l-60 102h60z" />
    <glyph glyph-name="amacron.alt" 
d="M289 537v-537h-57v37q-49 -43 -98 -43h-2q-46 0 -70 26t-24 73v351q0 47 24 73t70 26h2q51 0 98 -42v36h57zM232 83v370q-44 35 -82 35q-55 0 -55 -50v-339q0 -50 55 -50q39 0 82 34zM82 650h182v-50h-182v50z" />
    <glyph glyph-name="aogonek.alt" 
d="M289 537v-537h-6l-7 -13q-13 -22 -13 -34v-2q0 -12 13 -12h26v-38h-38q-46 0 -46 40v5q0 18 21 51l2 3h-9v37q-49 -43 -98 -43h-2q-46 0 -70 26t-24 73v351q0 47 24 73t70 26h2q51 0 98 -42v36h57zM232 83v370q-44 35 -82 35q-55 0 -55 -50v-339q0 -50 55 -50q39 0 82 34
z" />
    <glyph glyph-name="aring.alt" 
d="M253 640v-5q0 -51 -61 -51h-38q-61 0 -61 51v5q0 51 61 51h38q61 0 61 -51zM232 635v5q0 32 -43 32h-32q-43 0 -43 -32v-5q0 -17 10 -24.5t34 -7.5h31q43 0 43 32zM289 537v-537h-57v37q-49 -43 -98 -43h-2q-46 0 -70 26t-24 73v351q0 47 24 73t70 26h2q51 0 98 -42v36
h57zM232 83v370q-44 35 -82 35q-55 0 -55 -50v-339q0 -50 55 -50q39 0 82 34z" />
    <glyph glyph-name="aringacute.alt" 
d="M152 723l39 102h59l-60 -102h-38zM249 640v-5q0 -51 -61 -51h-38q-61 0 -61 51v5q0 51 61 51h38q61 0 61 -51zM228 635v5q0 32 -43 32h-32q-43 0 -43 -32v-5q0 -17 10 -24.5t34 -7.5h31q43 0 43 32zM289 537v-537h-57v37q-49 -43 -98 -43h-2q-46 0 -70 26t-24 73v351
q0 47 24 73t70 26h2q51 0 98 -42v36h57zM232 83v370q-44 35 -82 35q-55 0 -55 -50v-339q0 -50 55 -50q39 0 82 34z" />
    <glyph glyph-name="atilde.alt" 
d="M289 537v-537h-57v37q-49 -43 -98 -43h-2q-46 0 -70 26t-24 73v351q0 47 24 73t70 26h2q51 0 98 -42v36h57zM232 83v370q-44 35 -82 35q-55 0 -55 -50v-339q0 -50 55 -50q39 0 82 34zM118 681h3q23 0 44 -16l31 -26q14 -11 20 -11h2q10 0 10 14v39h40v-55q0 -41 -39 -41
h-4q-23 0 -44 17l-31 25q-14 11 -20 11h-2q-10 0 -10 -14v-39h-39v55q0 41 39 41z" />
    <glyph glyph-name="Gcommaaccent.alt" horiz-adv-x="359" 
d="M206 -45v-18q0 -43 -21 -85h-36q13 42 13 84v19h44zM259 309h-79v56h138v-248q0 -123 -122 -123h-31q-123 0 -123 123v467q0 122 123 122h31q121 0 121 -121v-103h-59v104q0 64 -65 64h-26q-65 0 -65 -64v-472q0 -64 65 -64h28q64 0 64 64v195z" />
    <glyph glyph-name="gcommaaccent.alt" horiz-adv-x="330" 
d="M146 585v18q0 43 21 85h36q-13 -42 -13 -84v-19h-44zM289 537v-544q0 -107 -110 -107h-36q-102 0 -102 99v24h53v-22q0 -50 51 -50h36q50 0 50 50v103q-46 -40 -97 -40h-2q-46 0 -70 26t-24 72v296q0 47 24 73t70 26h2q53 0 97 -42v36h58zM231 137v315q-43 36 -80 36h-2
q-54 0 -54 -50v-283q0 -51 54 -51h2q38 0 80 33z" />
    <glyph glyph-name="Kcommaaccent.alt" horiz-adv-x="335" 
d="M322 0h-66l-150 345v-345h-60v700h60v-341l156 341h64l-161 -344zM192 -45v-18q0 -43 -21 -85h-36q13 42 13 84v19h44z" />
    <glyph glyph-name="kcommaaccent.alt" horiz-adv-x="303" 
d="M234 537h61l-140 -262l137 -275h-64l-129 268v-268h-57v710h57v-433zM180 -45v-18q0 -43 -21 -85h-36q13 42 13 84v19h44z" />
    <glyph glyph-name="Lcommaaccent.alt" horiz-adv-x="270" 
d="M157 -45v-18q0 -43 -21 -85h-36q13 42 13 84v19h44zM46 700h60v-644h143v-56h-203v700z" />
    <glyph glyph-name="lcommaaccent.alt" horiz-adv-x="146" 
d="M98 -45v-18q0 -43 -21 -85h-36q13 42 13 84v19h44zM44 0v710h58v-710h-58z" />
    <glyph glyph-name="Ncommaaccent.alt" horiz-adv-x="375" 
d="M259 0l-158 577l2 -276v-301h-57v700h76l152 -561l-1 266v295h57v-700h-71zM213 -45v-18q0 -38 -21 -85h-37q13 42 13 84v19h45z" />
    <glyph glyph-name="ncommaaccent.alt" 
d="M191 -45v-18q0 -38 -21 -85h-37q13 42 13 84v19h45zM42 0v537h57v-37q52 43 99 43h3q90 0 90 -92v-451h-57v440q0 49 -50 49h-1q-37 0 -84 -34v-455h-57z" />
    <glyph glyph-name="Oslash.alt" horiz-adv-x="362" 
d="M320 117q0 -123 -123 -123h-32q-40 0 -67 12l-11 -38h-49l22 73q-18 29 -18 76v467q0 122 123 122h32q40 0 66 -13l12 39h49l-22 -73q18 -30 18 -75v-467zM260 185l1 371h-1v4l-143 -494q16 -16 50 -16h28q65 0 65 64v71zM102 143v-4l142 495q-18 16 -49 16h-28
q-65 0 -65 -64v-67l-1 -376h1z" />
    <glyph glyph-name="oslash.alt" horiz-adv-x="328" 
d="M175 -6h-21q-36 0 -59 10l-11 -36h-46l21 63q-22 29 -22 80v315q0 117 117 117h21q30 0 57 -10l12 36h46l-21 -64q22 -30 22 -79v-315q0 -117 -116 -117zM233 428q0 7 -1 11l-118 -380q14 -10 41 -10h19q59 0 59 60v21l1 293h-1v5zM174 489h-19q-60 0 -60 -61v-26
l-2 -288h2v-16l118 380q-14 11 -39 11z" />
    <glyph glyph-name="Oslashacute.alt" horiz-adv-x="362" 
d="M320 117q0 -123 -123 -123h-32q-40 0 -67 12l-11 -38h-49l22 73q-18 29 -18 76v467q0 122 123 122h32q40 0 66 -13l12 39h49l-22 -73q18 -30 18 -75v-467zM260 185l1 371h-1v4l-143 -494q16 -16 50 -16h28q65 0 65 64v71zM102 143v-4l142 495q-18 16 -49 16h-28
q-65 0 -65 -64v-67l-1 -376h1zM162 745l45 82h59l-65 -82h-39z" />
    <glyph glyph-name="oslashacute.alt" horiz-adv-x="328" 
d="M175 -6h-21q-36 0 -59 10l-11 -36h-46l21 63q-22 29 -22 80v315q0 117 117 117h21q30 0 57 -10l12 36h46l-21 -64q22 -30 22 -79v-315q0 -117 -116 -117zM233 428q0 7 -1 11l-118 -380q14 -10 41 -10h19q59 0 59 60v21l1 293h-1v5zM174 489h-19q-60 0 -60 -61v-26
l-2 -288h2v-16l118 380q-14 11 -39 11zM145 585l39 102h59l-60 -102h-38z" />
    <glyph glyph-name="Rcommaaccent.alt" horiz-adv-x="354" 
d="M196 -45v-18q0 -43 -21 -85h-36q13 42 13 84v19h44zM242 334q67 -18 67 -99v-235h-60v233q0 73 -75 73h-68v-306h-60v700h139q123 0 123 -122v-134q0 -86 -66 -110zM248 581q0 63 -65 63h-77v-283h69q73 0 73 72v148z" />
    <glyph glyph-name="rcommaaccent.alt" horiz-adv-x="206" 
d="M95 -45v-18q0 -43 -21 -85h-36q12 44 12 84v19h45zM42 0v537h57v-54q35 58 92 59v-65q-57 -4 -92 -39v-438h-57z" />
    <glyph glyph-name="Scommaaccent.alt" horiz-adv-x="345" 
d="M198 -45v-18q0 -43 -21 -85h-36q13 42 13 84v19h44zM244 346q35 -26 49 -53.5t14 -71.5v-106q0 -121 -123 -121h-22q-122 0 -122 120v144h59v-146q0 -62 65 -62h18q65 0 65 62v107q0 28 -9 44t-31 33l-103 77q-35 26 -49 54.5t-14 70.5v87q0 121 123 121h19
q122 0 122 -120v-123h-59v125q0 62 -65 62h-15q-65 0 -65 -62v-89q0 -27 9 -43.5t31 -33.5z" />
    <glyph glyph-name="scommaaccent.alt" horiz-adv-x="316" 
d="M183 -45v-18q0 -38 -21 -85h-37q13 42 13 84v19h45zM222 353v82q0 55 -57 55h-14q-57 0 -57 -55v-49q0 -40 34 -61l91 -56q33 -21 47 -44.5t14 -60.5v-57q0 -113 -114 -113h-16q-113 0 -113 112v82h56v-86q0 -54 57 -54h17q56 0 56 54v55q0 40 -34 60l-91 57
q-33 21 -46.5 44t-13.5 61v51q0 113 114 113h14q112 0 112 -112v-78h-56z" />
    <glyph glyph-name="Tcommaaccent.alt" horiz-adv-x="304" 
d="M177 -45v-18q0 -43 -21 -85h-36q13 42 13 84v19h44zM182 0h-60v644h-110v56h280v-56h-110v-644z" />
    <glyph glyph-name="tcommaaccent.alt" horiz-adv-x="193" 
d="M116 -45v-18q0 -41 -22 -85h-36q13 42 13 84v19h45zM118 484v-484h-58v484h-39v53h39v90h58v-90h62v-53h-62z" />
    <glyph glyph-name="yacute.alt" horiz-adv-x="310" 
d="M160 -110h-56l24 111l-109 536h58l79 -428l79 428h56zM137 585l39 102h59l-60 -102h-38z" />
    <glyph glyph-name="ycircumflex.alt" horiz-adv-x="310" 
d="M160 -110h-56l24 111l-109 536h58l79 -428l79 428h56zM185 687l61 -102h-40l-48 61l-48 -61h-40l62 102h53z" />
    <glyph glyph-name="ydieresis.alt" horiz-adv-x="310" 
d="M160 -110h-56l24 111l-109 536h58l79 -428l79 428h56zM128 669v-84h-50v84h50zM188 585v84h50v-84h-50z" />
    <glyph glyph-name="ygrave.alt" horiz-adv-x="310" 
d="M160 -110h-56l24 111l-109 536h58l79 -428l79 428h56zM139 687l39 -102h-39l-60 102h60z" />
    <glyph glyph-name="comma.alt" horiz-adv-x="122" 
d="M91 100v-37q0 -39 -6 -67.5t-25 -79.5h-45q19 79 20 149v35h56z" />
    <glyph glyph-name="semicolon.alt" horiz-adv-x="122" 
d="M91 537v-100h-60v100h60zM91 100v-37q0 -39 -6 -67.5t-25 -79.5h-45q19 79 20 149v35h56z" />
    <glyph glyph-name="colon.fig" horiz-adv-x="122" 
d="M91 285v-99h-60v99h60zM91 519v-99h-60v99h60z" />
    <glyph glyph-name="ampersand.alt" horiz-adv-x="357" 
d="M344 332h-38v-215q0 -123 -124 -123h-17q-124 0 -124 123v152q0 76 65 93q-63 23 -63 104v118q0 122 124 122h15q123 0 123 -121v-111h-57v112q0 64 -64 64h-17q-65 0 -65 -64v-135q0 -66 68 -66h174v-53zM100 266v-152q0 -64 66 -64h18q65 0 65 64v218h-81
q-68 0 -68 -66z" />
    <glyph glyph-name="quotedblleft.alt" horiz-adv-x="227" 
d="M135 517v36q0 71 27 146h48q-18 -78 -18 -148v-34h-57zM30 517v36q0 64 31 146h47q-21 -81 -21 -148v-34h-57z" />
    <glyph glyph-name="quotedblright.alt" horiz-adv-x="227" 
d="M92 700v-36q0 -71 -27 -146h-48q18 78 18 148v34h57zM197 700v-36q0 -64 -31 -146h-47q21 80 21 148v34h57z" />
    <glyph glyph-name="quoteleft.alt" horiz-adv-x="122" 
d="M31 517v36q0 64 31 146h45q-20 -81 -20 -148v-34h-56z" />
    <glyph glyph-name="quoteright.alt" horiz-adv-x="122" 
d="M92 700v-36q0 -64 -31 -146h-45q20 81 20 148v34h56z" />
    <glyph glyph-name="quotedblbase.alt" horiz-adv-x="227" 
d="M106 100v-36q0 -71 -27 -146h-48q18 78 18 148v34h57zM211 100v-36q0 -64 -31 -146h-47q21 80 21 148v34h57z" />
    <glyph glyph-name="quotesinglbase.alt" horiz-adv-x="122" 
d="M92 100v-36q0 -64 -31 -146h-45q20 81 20 148v34h56z" />
    <glyph glyph-name="guillemotleft.cap" horiz-adv-x="235" 
d="M14 356l59 162h47l-50 -162l51 -162h-45zM115 356l52 162h47l-44 -162l44 -162h-45z" />
    <glyph glyph-name="guillemotright.cap" horiz-adv-x="235" 
d="M161 518l59 -162l-62 -162h-45l51 162l-50 162h47zM67 518l52 -162l-54 -162h-45l44 162l-44 162h47z" />
    <glyph glyph-name="guilsinglleft.cap" horiz-adv-x="160" 
d="M14 356l73 162h51l-64 -162l64 -162h-49z" />
    <glyph glyph-name="guilsinglright.cap" horiz-adv-x="160" 
d="M72 518l73 -162l-75 -162h-49l64 162l-64 162h51z" />
    <glyph glyph-name="hyphen.cap" horiz-adv-x="206" 
d="M22 383h162v-54h-162v54z" />
    <glyph glyph-name="endash.cap" horiz-adv-x="366" 
d="M22 382h322v-52h-322v52z" />
    <glyph glyph-name="emdash.cap" horiz-adv-x="572" 
d="M22 382h512v-52h-512v52z" />
    <glyph glyph-name="at.alt" horiz-adv-x="499" 
d="M387 111h-21q-29 0 -42.5 9.5t-17.5 32.5q-38 -43 -85 -43q-35 0 -53 19.5t-18 54.5v103q0 36 12.5 54.5t46.5 31.5l90 32v89q0 47 -45 47h-5q-48 0 -48 -47v-59h-47v61q0 92 93 92h9q91 0 91 -92v-325q0 -18 7 -25.5t24 -7.5h9q37 0 37 49v354q0 77 -27 106.5t-97 29.5
h-101q-70 0 -97 -29.5t-27 -106.5v-382q0 -77 27 -106.5t97 -29.5h232v-28h-232q-86 0 -119.5 35.5t-33.5 128.5v382q0 91 34.5 127.5t118.5 36.5h101q84 0 119 -37t35 -127v-356q0 -39 -16.5 -56.5t-50.5 -17.5zM235 156q24 0 64 28v174l-67 -25q-20 -7 -27 -17.5t-7 -31.5
v-88q0 -40 37 -40z" />
    <glyph glyph-name="registered.alt" horiz-adv-x="496" 
d="M450 542v-384q0 -88 -36 -126t-117 -38h-98q-81 0 -117 38t-36 126v384q0 88 36 126t117 38h98q81 0 117 -38t36 -126zM428 158v384q0 77 -30.5 110t-100.5 33h-98q-70 0 -100.5 -33t-30.5 -110v-384q0 -76 30.5 -109.5t100.5 -33.5h98q70 0 100.5 33.5t30.5 109.5z
M297 329q28 -6 40.5 -23t12.5 -51v-161h-48v157q0 31 -13.5 43.5t-46.5 12.5h-37v-213h-48v513h92q55 0 77.5 -20.5t22.5 -68.5v-106q0 -38 -12 -55.5t-40 -27.5zM301 514q0 26 -11 36t-42 10h-43v-207h38q32 0 45 12t13 43v106z" />
    <glyph glyph-name="percent.alt" horiz-adv-x="473" 
d="M134 374h-16q-46 0 -65 22.5t-19 72.5v142q0 49 19 72t65 23h16q45 0 64 -23t19 -72v-142q0 -50 -18.5 -72.5t-64.5 -22.5zM339 319h16q46 0 64.5 -22.5t18.5 -71.5v-136q0 -50 -18.5 -72.5t-64.5 -22.5h-16q-45 0 -64 23t-19 72v136q0 49 19 71.5t64 22.5zM385 702
l-129 -365l-118 -339h-48l129 364l117 340h49zM131 657h-9q-23 0 -31 -11t-8 -39v-135q0 -27 8 -38t31 -11h10q22 0 29 10.5t7 38.5v135q0 28 -7 39t-30 11zM352 270h-10q-22 0 -29.5 -10.5t-7.5 -38.5v-128q0 -28 7 -39t30 -11h9q23 0 30.5 11t7.5 39v128q0 28 -7 38.5
t-30 10.5z" />
    <glyph glyph-name="NUL" horiz-adv-x="0" 
 />
    <glyph glyph-name="hfjslug" horiz-adv-x="694" 
d="M644 -200h-208l-8 14h-163l-8 -14h-207v303q14 0 23 9.5t9 22.5t-9.5 22.5t-22.5 9.5v554h100l30 79h334l29 -79h101v-921zM400 563v-172h15v78h38v14h-38v66h43v14h-58zM184 563v-172h15v79h47v-79h15v172h-15v-79h-47v79h-15zM460 394q10 -4 21 -4q31 0 31 36v137h-16
v-137q0 -22 -16 -22q-8 0 -20 5v-15zM371 465l-13 3q-4 -18 -8 -30h-1l-16 31q23 21 23 42q0 31 -27 31q-12 0 -20 -9t-8 -22t14 -39q-23 -18 -23 -47q0 -16 8 -26.5t21 -10.5q19 0 29 24h1l12 -24l12 6l-17 32q6 14 13 39zM523 323v-46h8v12l8 8l15 -20h10l-20 26l18 20
h-10l-20 -24h-1v24h-8zM488 292l10 -15h9l-12 17q10 4 10 14q0 15 -17 15h-20v-46h8v15h12zM426 276q10 0 17 7t7 17q0 9 -7 16.5t-17 7.5t-17 -7.5t-7 -16.5q0 -10 7 -17t17 -7zM370 301l-13 22h-9l18 -29v-17h8v17l18 29h-9zM193 323v-46h34v7h-26v13h23v7h-23v12h26v7
h-34zM132 323v-46h8v32l25 -32h7v46h-8v-32l-25 32h-7zM241 323l14 -47h8l11 34h1l11 -34h8l14 47h-8l-10 -35h-1l-11 35h-7l-11 -35h-1l-10 35h-8zM327 479q-12 22 -12 32q0 19 14 19q13 0 13 -19q0 -15 -15 -32zM342 423q-8 -21 -20 -21q-16 0 -16 25q0 19 16 35zM487 299
h-11v17h11q10 0 10 -8q0 -9 -10 -9zM426 283q-16 0 -16 17q0 6 4.5 11.5t11.5 5.5t11.5 -5.5t4.5 -11.5q0 -17 -16 -17z" />
    <glyph glyph-name="i.dot" horiz-adv-x="146" 
d="M43 601v76h60v-76h-60zM44 0v537h58v-537h-58z" />
    <glyph glyph-name="caron.alt" horiz-adv-x="500" 
d="M196 592v117h47l-19 -117h-28z" />
    <glyph glyph-name="acute.cap" horiz-adv-x="500" 
d="M211 745l45 82h59l-65 -82h-39z" />
    <glyph glyph-name="hungarumlaut.cap" horiz-adv-x="500" 
d="M174 745l42 82h55l-65 -82h-32zM252 745l42 82h55l-65 -82h-32z" />
    <glyph glyph-name="grave.cap" horiz-adv-x="500" 
d="M265 827l45 -82h-39l-66 82h60z" />
    <glyph glyph-name="circumflex.cap" horiz-adv-x="500" 
d="M277 835l65 -90h-40l-52 52l-52 -52h-40l66 90h53z" />
    <glyph glyph-name="caron.cap" horiz-adv-x="500" 
d="M342 835l-65 -90h-53l-66 90h40l52 -53l52 53h40z" />
    <glyph glyph-name="breve.cap" horiz-adv-x="500" 
d="M166 810v17h42v-13q0 -32 37 -32h10q36 0 36 32v13h43v-17q0 -68 -76 -68h-16q-76 0 -76 68z" />
    <glyph glyph-name="tilde.cap" horiz-adv-x="500" 
d="M191 836h4q23 0 42 -13l39 -29q12 -8 20 -8h2q11 0 11 14v36h39v-51q0 -40 -39 -40h-4q-23 0 -42 13l-39 28q-12 8 -20 8h-2q-11 0 -11 -14v-35h-39v51q0 40 39 40z" />
    <glyph glyph-name="macron.cap" horiz-adv-x="500" 
d="M159 801h182v-43h-182v43z" />
    <glyph glyph-name="dieresis.cap" horiz-adv-x="500" 
d="M280 745v69h51v-69h-51zM221 814v-69h-51v69h51z" />
    <glyph glyph-name="dotaccent.cap" horiz-adv-x="500" 
d="M273 809v-64h-52v64h52z" />
    <glyph glyph-name="ring.cap" horiz-adv-x="500" 
d="M342 798v-5q0 -49 -60 -49h-64q-60 0 -60 49v5q0 49 60 49h64q60 0 60 -49zM321 794v3q0 31 -42 31h-58q-42 0 -42 -31v-3q0 -31 42 -31h58q42 0 42 31z" />
    <glyph glyph-name="commaaccent.alt" horiz-adv-x="500" 
d="M269 -45v-18q0 -43 -21 -85h-36q13 42 13 84v19h44z" />
    <glyph glyph-name="CR" horiz-adv-x="120" 
 />
    </font>
</defs>
</svg>
