<?xml version="1.0" encoding="utf-8"?>
<!-- Generator: Adobe Illustrator 21.0.2, SVG Export Plug-In . SVG Version: 6.00 Build 0)  -->
<svg version="1.1" id="Layer_1" xmlns="http://www.w3.org/2000/svg" xmlns:xlink="http://www.w3.org/1999/xlink" x="0px" y="0px"
	 viewBox="0 0 140 48" style="enable-background:new 0 0 140 48;" xml:space="preserve">
<style type="text/css">
	.st0{fill:#FFFFFF;}
	.st1{fill:#FF0000;}
</style>
<image style="display:none;overflow:visible;" width="280" height="96" xlink:href="289A48F4.jpg"  transform="matrix(0.5 0 0 0.5 0 0)">
</image>
<g>
	<polygon class="st0" points="78.5,8.1 74.8,0.1 62.2,0.1 70,16.1 	"/>
	<path class="st0" d="M108.5,0.1H85.9L55.1,36.3h12.3l8.1-9.6l4.4,9.6H101l2.8-16.1l2.6,8.9l7.7-9.2L108.5,0.1z M91.2,33.4l-7.5-16
		l13-15L91.2,33.4z"/>
	<polygon class="st0" points="127.7,0.1 107.1,31.3 117.4,31.3 125.3,19.1 122.3,36.3 132.7,36.3 139.1,0.1 	"/>
</g>
<g>
	<path class="st1" d="M17.9,1.4c-0.1,1.6-0.4,3.4-0.2,5.1c0.2,2.4,1.7,3.6,3.7,4.4c0.6,0.2,1.4,0.6,2.2,0.4c0.4-0.1,0.6-0.3,0.8-0.5
		c0.7-0.4,1.5-0.8,2.5-0.9c1.5-0.2,2.9,0.2,3.9,0.5c1,0.3,2.4,0.7,3.3,1.2c0.5,0.3,0.8,0.7,1.1,1.2c0.5,0.8,0.6,2.1,1.7,2.3
		c0.2-1,0-2.2,0.1-3.4c0-1.1,0.2-2.1,0.4-3.1c0.3-1.4,0.7-2.8,1.1-4.2c0.1-0.2,0.3-1.3,0.7-1.1c0.2,0.1,0.1,0.5,0.1,0.7
		c0,0.9-0.1,1.5-0.2,2.4c-0.2,2.2-0.2,4.6,0.2,6.5c0.2,1,0.5,2,0.4,3.1c0,0.3-0.2,0.6-0.2,1c0,0.3,0,0.5-0.1,0.7
		c-0.1,0.3-0.4,0.7-0.6,1.1c-0.1,0.1-0.2,0.3-0.3,0.5c-0.1,0.2-0.3,0.3-0.3,0.5c0,0.3,0.7,1,1,1.1c1.5,0.4,3.1,0.6,4,1.5
		c0.5,0.5,0.9,1.2,1,2.1c0.1,0.8-0.2,1.5-0.5,2.2c-0.2,0.5-0.4,1.7-0.8,1.9c-0.3,0.2-0.7,0.1-1,0.2c-0.1,0.4-0.3,0.7-0.3,1.2
		c-0.3,0.4-0.6,0.6-0.9,0.9c0.1,0.8-0.4,1-1.1,1c-1.9,1.6-5.8,0.5-7.4-0.5c-0.8,0.6-1.7,1.1-1.6,2.6c0.7,0.4,1.2,0.8,2.1,1.1
		c1.1,0.4,2.5,0.2,3.2,0.8c0.1,0.1,0.1,0.1,0.2,0.2h5.6l15.8-18.3L48.8,0.1H18C18,0.5,17.9,1,17.9,1.4z"/>
	<path class="st1" d="M3.4,36c1-1,2.4-1.8,3.8-2.4c1.1-0.5,2.2-0.9,3.1-1.6c0.4-0.3,0.7-0.6,1.1-0.7c0.9-0.1,1.7,0.3,2.4,0.4
		c1.8,0.4,3.2-0.5,4.1-1.5c0.5-0.5,1-0.9,1.3-1.6c0.3-0.8,0.2-1.8,0.2-2.9c0-2.1,0.8-3.5,0.8-5.4c0-1-0.2-1.9-0.1-3
		c-1-0.5-2.2-1-3.1-2c-0.8-0.9-1.7-2.6-1.5-4c-0.6-0.9-1.2-2.2-1.2-3.7c0-1.5,0.4-2.7,0.8-4c0.3-1.2,0.7-2.4,1.1-3.6H9.4L1.6,36.2
		h1.6C3.3,36.1,3.4,36,3.4,36z"/>
</g>
<g>
	<g>
		<path class="st0" d="M5.1,47.3l0.2-1L5.1,47.3L5.1,47.3z M2.8,47.3l0-0.4h0.4l-0.2,0.4H2.8z M0.6,47.3l0.3-1.4L0.6,47.3L0.6,47.3z
			 M5.3,43.3L5.3,43.3l0.7,0l0,0H5.3z M1.5,43.3L1.5,43.3l0.7,0l0,0H1.5z"/>
		<polygon class="st0" points="6.6,42.7 5,42.7 3,46.4 3,46.4 2.6,42.7 1.1,42.7 0,47.8 1.1,47.8 1.8,43.8 1.8,43.8 2.3,47.8 
			3.2,47.8 5.4,43.8 5.4,43.8 4.4,47.8 5.5,47.8 6.6,42.7 		"/>
	</g>
	<g>
		<polygon class="st0" points="7.3,47.3 8.2,43.2 8.3,43.2 7.4,47.3 		"/>
		<polygon class="st0" points="11.7,42.7 7.8,42.7 6.7,47.8 10.7,47.8 10.9,46.9 8,46.9 8.3,45.6 10.9,45.6 11.1,44.8 8.5,44.8 
			8.7,43.7 11.5,43.7 11.7,42.7 		"/>
	</g>
	<g>
		<path class="st0" d="M16.8,47.3l0.2-1L16.8,47.3L16.8,47.3z M14.5,47.3l0-0.4h0.4l-0.2,0.4H14.5z M12.4,47.3l0.3-1.4L12.4,47.3
			L12.4,47.3z M17,43.3L17,43.3l0.7,0l0,0H17z M13.2,43.3L13.2,43.3l0.7,0l0,0H13.2z"/>
		<polygon class="st0" points="18.3,42.7 16.7,42.7 14.8,46.4 14.8,46.4 14.4,42.7 12.8,42.7 11.7,47.8 12.8,47.8 13.6,43.8 
			13.6,43.8 14.1,47.8 14.9,47.8 17.1,43.8 17.1,43.8 16.2,47.8 17.2,47.8 18.3,42.7 		"/>
	</g>
	<g>
		<path class="st0" d="M19.4,47.3l0.9-4.1h0.1l-0.4,2.1h0L19.4,47.3L19.4,47.3z M22.5,47.1c0.2-0.2,0.4-0.6,0.4-0.9
			c0-0.1,0-0.3-0.1-0.4c0.2,0.1,0.2,0.4,0.2,0.5C22.9,46.6,22.7,46.9,22.5,47.1z M23,44.4c0-0.1,0-0.2,0-0.3c0-0.3-0.1-0.7-0.4-0.9
			c0.5,0.1,0.6,0.3,0.6,0.7C23.1,44.1,23.1,44.3,23,44.4z"/>
		<path class="st0" d="M22,42.7h-2.1l-1.1,5.1h2.7c1,0,2-0.6,2-1.7c0-0.5-0.3-0.9-0.8-1v0c0.6-0.1,1-0.6,1-1.2
			C23.6,42.9,23,42.7,22,42.7L22,42.7z M20.5,44.8l0.3-1.2h1.2c0.4,0,0.6,0.1,0.6,0.5c0,0.4-0.4,0.7-0.8,0.7H20.5L20.5,44.8z
			 M20,46.9l0.3-1.4h1.1c0.4,0,0.9,0,0.9,0.6c0,0.5-0.4,0.8-0.9,0.8H20L20,46.9z"/>
	</g>
	<g>
		<polygon class="st0" points="24.8,47.3 25.6,43.2 25.7,43.2 24.9,47.3 		"/>
		<polygon class="st0" points="29.1,42.7 25.2,42.7 24.2,47.8 28.1,47.8 28.3,46.9 25.5,46.9 25.7,45.6 28.3,45.6 28.5,44.8 
			25.9,44.8 26.2,43.7 28.9,43.7 29.1,42.7 		"/>
	</g>
	<g>
		<path class="st0" d="M33.1,47.3c0-0.1,0-0.2,0-0.3c0-0.2,0-0.4,0-0.6c0-0.1,0-0.3-0.1-0.5c0.1,0,0.1,0.1,0.1,0.4
			c0,0.1,0,0.2,0,0.3C33.2,46.9,33.2,47,33.1,47.3C33.2,47.3,33.2,47.3,33.1,47.3L33.1,47.3z M29.9,47.3l0.9-4.1h0.1L30,47.3H29.9z
			 M32.6,45.5C32.6,45.5,32.6,45.5,32.6,45.5L32.6,45.5C32.6,45.5,32.6,45.5,32.6,45.5z M33.7,44.6c0-0.1,0.1-0.3,0.1-0.4
			c0-0.4-0.1-0.8-0.6-1c0.6,0.1,0.7,0.4,0.7,0.8C33.8,44.3,33.8,44.5,33.7,44.6z"/>
		<path class="st0" d="M32.8,42.7h-2.4l-1.1,5.1h1.1l0.4-2h1.1c0.4,0,0.7,0.1,0.7,0.6c0,0.3-0.1,0.7-0.1,1c0,0.1,0,0.2,0.1,0.3h1.1
			c-0.1-0.1-0.1-0.4-0.1-0.6c0-0.3,0-0.7,0-0.9c0-0.4-0.1-0.8-0.5-0.9v0c0.7-0.1,1.2-0.7,1.2-1.4C34.3,43.1,33.7,42.7,32.8,42.7
			L32.8,42.7z M31,45l0.3-1.4h1.1c0.4,0,0.8,0.1,0.8,0.6c0,0.6-0.6,0.8-1.2,0.8H31L31,45z"/>
	</g>
	<g>
		<path class="st0" d="M38.8,47.3c-0.7-0.2-1-0.8-1-1.7c0-0.9,0.4-1.8,1.1-2.2c-0.6,0.5-1,1.4-1,2.2C37.9,46.5,38.2,47.1,38.8,47.3z
			 M40.5,47.2c0.8-0.5,1.2-1.4,1.2-2.4c0-0.8-0.3-1.4-0.8-1.6c0.5,0.2,1,0.6,1,1.6C41.8,45.8,41.4,46.8,40.5,47.2z"/>
		<path class="st0" d="M40,42.6c-1.7,0-2.8,1.4-2.8,3.1c0,1.4,0.8,2.3,2.3,2.3c1.8,0,2.8-1.5,2.8-3.2C42.3,43.4,41.4,42.6,40,42.6
			L40,42.6z M39.5,47c-0.8,0-1.2-0.6-1.2-1.3c0-1,0.5-2.1,1.7-2.1c0.8,0,1.1,0.6,1.1,1.3C41.2,45.8,40.6,47,39.5,47L39.5,47z"/>
	</g>
	<g>
		<polygon class="st0" points="43.4,47.3 44.3,43.2 44.4,43.2 43.9,45.3 43.9,45.3 43.5,47.3 		"/>
		<polygon class="st0" points="47.5,42.7 43.9,42.7 42.8,47.8 43.9,47.8 44.3,45.7 46.5,45.7 46.7,44.8 44.5,44.8 44.8,43.7 
			47.3,43.7 47.5,42.7 		"/>
	</g>
	<g>
		<polygon class="st0" points="51.3,47.3 52.1,43.2 52.2,43.2 51.4,47.3 		"/>
		<polygon class="st0" points="54.4,42.7 50.1,42.7 49.9,43.7 51.5,43.7 50.6,47.8 51.8,47.8 52.6,43.7 54.2,43.7 54.4,42.7 		"/>
	</g>
	<g>
		<path class="st0" d="M58,47.3c0-0.1,0-0.2,0-0.3c0-0.2,0-0.4,0-0.6c0-0.1,0-0.3-0.1-0.5c0.1,0,0.1,0.1,0.1,0.4c0,0.1,0,0.2,0,0.3
			C58.1,46.9,58.1,47,58,47.3C58.1,47.3,58.1,47.3,58,47.3L58,47.3z M54.9,47.3l0.9-4.1h0.1L55,47.3H54.9z M57.6,45.5
			C57.6,45.5,57.6,45.5,57.6,45.5L57.6,45.5C57.6,45.5,57.6,45.5,57.6,45.5z M58.6,44.6c0-0.1,0.1-0.3,0.1-0.4c0-0.4-0.1-0.8-0.6-1
			c0.6,0.1,0.7,0.4,0.7,0.8C58.8,44.3,58.7,44.5,58.6,44.6z"/>
		<path class="st0" d="M57.8,42.7h-2.4l-1.1,5.1h1.1l0.4-2h1.1c0.4,0,0.7,0.1,0.7,0.6c0,0.3-0.1,0.7-0.1,1c0,0.1,0,0.2,0,0.3h1.1
			c-0.1-0.1-0.1-0.4-0.1-0.6c0-0.3,0-0.7,0-0.9c0-0.4-0.1-0.8-0.5-0.9v0c0.7-0.1,1.2-0.7,1.2-1.4C59.3,43.1,58.7,42.7,57.8,42.7
			L57.8,42.7z M56,45l0.3-1.4h1.1c0.4,0,0.8,0.1,0.8,0.6c0,0.6-0.6,0.8-1.2,0.8H56L56,45z"/>
	</g>
	<g>
		<path class="st0" d="M63.9,47.3l-0.1-1h0l-0.2-1.4L63.9,47.3L63.9,47.3z M60.4,47.3l0.4-0.7L60.4,47.3L60.4,47.3z M62.8,43.3
			l0.1-0.1h0.4l0,0.1H62.8z"/>
		<path class="st0" d="M63.7,42.7h-1.2l-3,5.1h1.2l0.6-1.1h1.9l0.2,1.1h1.1L63.7,42.7L63.7,42.7z M61.8,45.8l1.1-2h0l0.2,2H61.8
			L61.8,45.8z"/>
	</g>
	<g>
		<path class="st0" d="M65.9,47.3l0.9-4.1h0.1L65.9,47.3L65.9,47.3z M68.6,47.1c0.7-0.4,1.1-1.2,1.1-2.2c0-0.8-0.3-1.4-0.9-1.6
			c0.7,0.2,1.1,0.6,1.1,1.4C69.9,45.3,69.7,46.6,68.6,47.1z"/>
		<path class="st0" d="M68.2,42.7h-1.8l-1.1,5.1h2.1c2,0,3-1.3,3-3.1C70.4,43.5,69.6,42.7,68.2,42.7L68.2,42.7z M66.6,46.9l0.7-3.2
			h0.8c0.8,0,1.1,0.5,1.1,1.2c0,1.1-0.6,2-1.8,2H66.6L66.6,46.9z"/>
	</g>
	<g>
		<polygon class="st0" points="71.3,47.3 72.2,43.2 72.3,43.2 71.4,47.3 		"/>
		<polygon class="st0" points="72.9,42.7 71.8,42.7 70.7,47.8 71.8,47.8 72.9,42.7 		"/>
	</g>
	<g>
		<path class="st0" d="M76.5,47.3l-0.2-0.5H77l-0.1,0.5H76.5z M73.6,47.3l0.7-3.1L73.6,47.3L73.6,47.3z M74.5,43.2h0.4l0.2,0.5h-0.7
			l-0.1,0.4L74.5,43.2z M77.8,43.2l0,0.2L77.8,43.2z"/>
		<polygon class="st0" points="78.4,42.7 77.3,42.7 76.6,46.3 76.6,46.3 75.2,42.7 74.1,42.7 73,47.8 74,47.8 74.8,44.2 74.8,44.2 
			76.2,47.8 77.3,47.8 78.4,42.7 		"/>
	</g>
	<g>
		<path class="st0" d="M80.4,47.3c-0.7-0.2-1-0.8-1-1.7c0-0.9,0.4-1.8,1.1-2.2c-0.6,0.5-1,1.4-1,2.2C79.4,46.5,79.8,47.1,80.4,47.3z
			 M82.6,46.8c0.1-0.1,0.2-0.3,0.3-0.5l-0.1,0.5H82.6z M83.1,43.9c-0.1-0.3-0.3-0.5-0.5-0.6c0.3,0.1,0.5,0.3,0.7,0.6H83.1z"/>
		<path class="st0" d="M81.6,42.6c-1.7,0-2.8,1.4-2.8,3.1c0,1.4,0.8,2.3,2.3,2.3c0.5,0,1-0.2,1.3-0.6h0v0.5h0.7l0.6-2.8h-2.2
			l-0.2,0.8h1.2c-0.2,0.7-0.6,1.1-1.4,1.1c-0.8,0-1.2-0.6-1.2-1.3c0-1,0.5-2.1,1.7-2.1c0.6,0,1,0.2,1,0.9h1.1
			C83.8,43.2,82.8,42.6,81.6,42.6L81.6,42.6z"/>
	</g>
	<g>
		<path class="st0" d="M87,47.3l0.9-4.1H88l-0.5,2.3h0l-0.4,1.8H87z M90.4,45.1c0.2-0.2,0.3-0.5,0.3-0.9c0-0.3-0.1-0.7-0.5-0.9
			c0.5,0.2,0.6,0.5,0.6,0.9C90.8,44.6,90.7,44.9,90.4,45.1z"/>
		<path class="st0" d="M89.5,42.7h-2l-1.1,5.1h1.1l0.4-1.8h1.4c1.1,0,2-0.7,2-1.8C91.3,43.1,90.6,42.7,89.5,42.7L89.5,42.7z
			 M88.1,45.1l0.3-1.5h1c0.4,0,0.8,0.1,0.8,0.6c0,0.6-0.4,0.9-0.9,0.9H88.1L88.1,45.1z"/>
	</g>
	<g>
		<path class="st0" d="M93.6,47.3c-0.7-0.2-1-0.8-1-1.7c0-0.9,0.4-1.8,1.1-2.2c-0.6,0.5-1,1.4-1,2.2C92.7,46.5,93,47.1,93.6,47.3z
			 M95.3,47.2c0.8-0.5,1.2-1.4,1.2-2.4c0-0.8-0.3-1.4-0.8-1.6c0.5,0.2,1,0.6,1,1.6C96.6,45.8,96.2,46.8,95.3,47.2z"/>
		<path class="st0" d="M94.8,42.6c-1.7,0-2.8,1.4-2.8,3.1c0,1.4,0.8,2.3,2.3,2.3c1.8,0,2.8-1.5,2.8-3.2
			C97.1,43.4,96.2,42.6,94.8,42.6L94.8,42.6z M94.3,47c-0.8,0-1.2-0.6-1.2-1.3c0-1,0.5-2.1,1.7-2.1c0.8,0,1.1,0.6,1.1,1.3
			C96,45.8,95.4,47,94.3,47L94.3,47z"/>
	</g>
	<g>
		<polygon class="st0" points="98.1,47.3 99,43.2 99.1,43.2 98.3,47.3 		"/>
		<polygon class="st0" points="99.7,42.7 98.6,42.7 97.5,47.8 98.7,47.8 99.7,42.7 		"/>
	</g>
	<g>
		<path class="st0" d="M103.4,47.3l-0.2-0.5h0.7l-0.1,0.5H103.4z M100.4,47.3l0.7-3.2L100.4,47.3L100.4,47.3z M101.3,43.2h0.4
			l0.2,0.5h-0.7l-0.1,0.4L101.3,43.2z M104.6,43.2l0,0.2L104.6,43.2z"/>
		<polygon class="st0" points="105.2,42.7 104.2,42.7 103.5,46.3 103.4,46.3 102.1,42.7 100.9,42.7 99.8,47.8 100.9,47.8 
			101.6,44.2 101.6,44.2 103,47.8 104.1,47.8 105.2,42.7 		"/>
	</g>
	<g>
		<polygon class="st0" points="107.4,47.3 108.3,43.2 108.4,43.2 107.5,47.3 		"/>
		<polygon class="st0" points="110.5,42.7 106.3,42.7 106.1,43.7 107.7,43.7 106.8,47.8 107.9,47.8 108.8,43.7 110.3,43.7 
			110.5,42.7 		"/>
	</g>
	<g>
		<path class="st0" d="M114.3,47.3c-0.7-0.2-1-0.8-1-1.7c0-0.9,0.4-1.8,1.1-2.2c-0.6,0.5-1,1.4-1,2.2
			C113.4,46.5,113.8,47.1,114.3,47.3z M116.6,46.8c0.1-0.1,0.2-0.3,0.3-0.5l-0.1,0.5H116.6z M117,43.9c-0.1-0.3-0.3-0.5-0.5-0.6
			c0.3,0.1,0.5,0.3,0.7,0.6H117z"/>
		<path class="st0" d="M115.6,42.6c-1.7,0-2.8,1.4-2.8,3.1c0,1.4,0.8,2.3,2.3,2.3c0.5,0,1-0.2,1.3-0.6h0v0.5h0.7l0.6-2.8h-2.2
			l-0.2,0.8h1.2c-0.2,0.7-0.6,1.1-1.4,1.1c-0.8,0-1.2-0.6-1.2-1.3c0-1,0.5-2.1,1.7-2.1c0.6,0,1,0.2,1,0.9h1.1
			C117.7,43.2,116.8,42.6,115.6,42.6L115.6,42.6z"/>
	</g>
	<g>
		<path class="st0" d="M122,47.3c0-0.1,0-0.2,0-0.3c0-0.2,0-0.4,0-0.6c0-0.1,0-0.3-0.1-0.5c0.1,0,0.1,0.1,0.1,0.4c0,0.1,0,0.2,0,0.3
			C122.1,46.9,122.1,47,122,47.3C122.1,47.3,122.1,47.3,122,47.3L122,47.3z M118.9,47.3l0.9-4.1h0.1l-0.4,2.1h0L118.9,47.3
			L118.9,47.3z M121.6,45.5C121.6,45.5,121.6,45.5,121.6,45.5L121.6,45.5C121.6,45.5,121.6,45.5,121.6,45.5z M122.6,44.6
			c0-0.1,0.1-0.2,0.1-0.4c0-0.4-0.1-0.8-0.6-1c0.6,0.1,0.7,0.4,0.7,0.8C122.8,44.3,122.7,44.5,122.6,44.6z"/>
		<path class="st0" d="M121.8,42.7h-2.4l-1.1,5.1h1.1l0.4-2h1.1c0.4,0,0.7,0.1,0.7,0.6c0,0.3-0.1,0.7-0.1,1c0,0.1,0,0.2,0.1,0.3h1.1
			c-0.1-0.1-0.1-0.4-0.1-0.6c0-0.3,0-0.7,0-0.9c0-0.4-0.1-0.8-0.5-0.9v0c0.7-0.1,1.2-0.7,1.2-1.4C123.3,43.1,122.7,42.7,121.8,42.7
			L121.8,42.7z M120,45l0.3-1.4h1.1c0.4,0,0.8,0.1,0.8,0.6c0,0.6-0.6,0.8-1.2,0.8H120L120,45z"/>
	</g>
	<g>
		<path class="st0" d="M125.6,47.3c-0.7-0.2-1-0.8-1-1.7c0-0.9,0.4-1.8,1.1-2.2c-0.6,0.5-1,1.4-1,2.2
			C124.7,46.5,125,47.1,125.6,47.3z M127.3,47.2c0.8-0.5,1.2-1.4,1.2-2.4c0-0.8-0.3-1.4-0.8-1.6c0.5,0.2,1,0.6,1,1.6
			C128.6,45.8,128.2,46.8,127.3,47.2z"/>
		<path class="st0" d="M126.8,42.6c-1.7,0-2.8,1.4-2.8,3.1c0,1.4,0.8,2.3,2.3,2.3c1.8,0,2.8-1.5,2.8-3.2
			C129.1,43.4,128.2,42.6,126.8,42.6L126.8,42.6z M126.3,47c-0.8,0-1.2-0.6-1.2-1.3c0-1,0.5-2.1,1.7-2.1c0.8,0,1.1,0.6,1.1,1.3
			C128,45.8,127.4,47,126.3,47L126.3,47z"/>
	</g>
	<g>
		<path class="st0" d="M131.2,47.4c-0.4-0.1-0.9-0.4-0.9-0.9c0-0.2,0-0.4,0.1-0.6l0.6-2.6h0.1l-0.5,2.3c-0.1,0.4-0.1,0.6-0.1,0.7
			C130.5,46.7,130.7,47.2,131.2,47.4z M133.1,47.1c0.4-0.3,0.5-0.9,0.6-1.3l0.6-2.6h0.1l-0.5,2.4C133.7,46.4,133.5,46.8,133.1,47.1z
			"/>
		<path class="st0" d="M135,42.7h-1.1l-0.6,3c-0.2,0.8-0.3,1.3-1.3,1.3c-0.8,0-1-0.4-1-0.7c0-0.2,0.1-0.5,0.1-0.6l0.6-3h-1.1l-0.6,3
			c-0.1,0.2-0.1,0.5-0.1,0.8c0,1.1,1,1.5,2,1.5c1.6,0,2.2-0.8,2.5-2.3L135,42.7L135,42.7z"/>
	</g>
	<g>
		<path class="st0" d="M135.7,47.3l0.9-4.1h0.1l-0.5,2.3h0l-0.4,1.8H135.7z M139.1,45.1c0.2-0.2,0.3-0.5,0.3-0.9
			c0-0.3-0.1-0.7-0.5-0.9c0.5,0.2,0.6,0.5,0.6,0.9C139.5,44.6,139.4,44.9,139.1,45.1z"/>
		<path class="st0" d="M138.2,42.7h-2l-1.1,5.1h1.1l0.4-1.8h1.4c1.1,0,2-0.7,2-1.8C140,43.1,139.3,42.7,138.2,42.7L138.2,42.7z
			 M136.8,45.1l0.3-1.5h1c0.4,0,0.8,0.1,0.8,0.6c0,0.6-0.4,0.9-0.9,0.9H136.8L136.8,45.1z"/>
	</g>
</g>
</svg>
