<svg id="Layer_1" data-name="Layer 1" xmlns="http://www.w3.org/2000/svg" viewBox="0 0 165 60" width="165px" height="60px"><defs><style>.cls-1,.cls-2{fill:#ef464b;}.cls-1{fill-rule:evenodd;}</style></defs><title>logo</title><polygon class="cls-1" points="11.72 40.78 0 40.78 0 0.14 11.72 0.14 11.72 15.37 27.18 15.37 27.18 0.14 38.9 0.14 38.9 40.78 27.18 40.78 27.18 25.55 11.72 25.55 11.72 40.78 11.72 40.78"/><polygon class="cls-1" points="69.02 20.32 56.29 40.63 44.07 40.63 56.81 20.32 44.07 0 56.29 0 69.02 20.32 69.02 20.32"/><polygon class="cls-1" points="144.9 14.07 153.28 0.14 165 0.14 165 40.78 153.28 40.78 153.28 17.8 144.9 31.33 136.51 17.8 136.51 40.78 124.8 40.78 124.8 0.14 136.51 0.14 144.9 14.07 144.9 14.07"/><path class="cls-1" d="M325.82,293.45a20.32,20.32,0,1,1-.21-20.47l-8.79,5.68h0a9.79,9.79,0,1,0,0,9.46l.09.05,8.92,5.28Z" transform="translate(-206.94 -262.93)"/><polygon class="cls-1" points="81.75 0 75.12 10.59 74.53 11.53 68.4 1.82 67.26 0 81.75 0"/><path class="cls-2" d="M219.11,317.51h-11.6a.51.51,0,0,1-.57-.52.56.56,0,0,1,.57-.52h11.6a.51.51,0,0,1,.47.52Q219.52,317.51,219.11,317.51Zm-8.54.94q.31-.42.67-.21a.54.54,0,0,1,.16.73,15.15,15.15,0,0,1-3.26,3.39q-.52.31-.83-.05t.21-.78A10.71,10.71,0,0,0,210.57,318.45Zm-2.07-7a11.78,11.78,0,0,1,2.12,3.76q.16.57-.21.78a.49.49,0,0,1-.72-.31,12.1,12.1,0,0,0-2-3.6.42.42,0,0,1,.05-.63A.57.57,0,0,1,208.5,311.46Zm4.14-.73A17.37,17.37,0,0,1,214,315a.68.68,0,0,1-.47.73.6.6,0,0,1-.62-.57,13.36,13.36,0,0,0-1.24-4,.48.48,0,0,1,.21-.73A.64.64,0,0,1,212.64,310.73Zm3.11,7.62a27.51,27.51,0,0,1,3,3.45.6.6,0,0,1-.16.84q-.41.16-.78-.31A23.3,23.3,0,0,0,215,319q-.41-.36-.1-.73A.68.68,0,0,1,215.74,318.35Zm2.8-6.79a25,25,0,0,1-2,4.23.57.57,0,0,1-.78.26q-.41-.26-.16-.78a19.88,19.88,0,0,0,1.81-4.07.63.63,0,0,1,.78-.47Q218.7,310.93,218.54,311.56Z" transform="translate(-206.94 -262.93)"/><path class="cls-2" d="M240.44,310.93v10.6h3.62q.41,0,.47.52t-.47.57h-11.6q-.47-.05-.41-.63a.47.47,0,0,1,.52-.47h3.68V311q0-.42.52-.47a.51.51,0,0,1,.52.47v10.54h2.12v-10.6q0-.47.52-.47A.47.47,0,0,1,240.44,310.93Zm-6.89,2.24a37.59,37.59,0,0,1,2.17,6,.67.67,0,0,1-.36.78.48.48,0,0,1-.67-.37,39.38,39.38,0,0,0-2.12-5.9.52.52,0,0,1,.21-.78A.63.63,0,0,1,233.55,313.18Zm9.37-.16a.58.58,0,0,1,.67-.47.64.64,0,0,1,.36.78,30.54,30.54,0,0,1-2.17,6q-.36.63-.83.42t-.21-.89A35.19,35.19,0,0,0,242.92,313Z" transform="translate(-206.94 -262.93)"/><path class="cls-2" d="M259.63,310.88v2.35h1.14q.31.05.36.47t-.36.47h-1.14v2.66a5.34,5.34,0,0,0,.88-.57q.36-.21.67.21a.47.47,0,0,1-.21.68,1.11,1.11,0,0,0-.26.21l-1.09.63v3.5q0,1.51-1.92.94a.6.6,0,0,1-.47-.73q.16-.42.72-.31.78.26.72,0v-2.92q-.83.42-1.09.52t-.57-.26a.46.46,0,0,1,.21-.63l.72-.37a6.93,6.93,0,0,0,.72-.37v-3.18h-1.24q-.36,0-.41-.47a.47.47,0,0,1,.41-.47h1.24v-2.35q0-.31.47-.37T259.63,310.88Zm7.09,5.9h-4.92q-.41,0-.47-.47a.51.51,0,0,1,.47-.52h5.33q1.29.1.78,1.51a8.74,8.74,0,0,1-2.33,3.08,7.47,7.47,0,0,0,3.47,1.15q.47.05.47.57a.5.5,0,0,1-.57.47,12.71,12.71,0,0,1-4.3-1.51,14.36,14.36,0,0,1-3.78,1.46q-.62.1-.78-.37t.41-.63a8.5,8.5,0,0,0,3.21-1.2,10.58,10.58,0,0,1-2-2.4.55.55,0,0,1,.05-.84.64.64,0,0,1,.88.21,9.58,9.58,0,0,0,2.07,2.45,7.24,7.24,0,0,0,2.17-2.56Q267,316.83,266.72,316.78Zm-3.47-6h3q.93,0,.93.89v2.09q-.1.52.41.42h1.14a.53.53,0,0,1,.52.52.41.41,0,0,1-.47.47h-1.45q-1.29.16-1.14-1.3v-1.83q0-.31-.26-.31h-2.43q-.36,0-.31.31v.78a3.32,3.32,0,0,1-1.81,2.87q-.57.26-.83-.05-.26-.47.26-.78a2.52,2.52,0,0,0,1.45-2.24v-.94Q262.22,310.83,263.26,310.83Z" transform="translate(-206.94 -262.93)"/><path class="cls-2" d="M285.08,313.85a.53.53,0,0,1,.78.05.46.46,0,0,1-.1.73,13.18,13.18,0,0,1-2.9,1.62q-.57.21-.83-.16a.56.56,0,0,1,.36-.73A14.53,14.53,0,0,0,285.08,313.85Zm3.62,4.44q-.41,4.23-5.85,4.44a.6.6,0,0,1-.67-.47q-.05-.47.52-.52,4.66-.1,5-3.55a.58.58,0,0,1,.62-.52A.51.51,0,0,1,288.7,318.29Zm-5.8-7.41q1.55.57,2.33.84a.59.59,0,0,1,.31.68q-.26.47-.67.26a12,12,0,0,0-2.07-.73.21.21,0,0,1-.16-.05q-.47-.16-.36-.57A.54.54,0,0,1,282.9,310.88Zm10.1,6.47v3.18a.51.51,0,0,1-.57.52q-.47-.05-.47-.57v-2.66q.05-.36-.52-.37h-6.58q-.41,0-.36.31v2.87a.47.47,0,0,1-.52.47q-.52,0-.52-.47V317.3q-.05-.83.93-.84h7.4Q293.05,316.41,293,317.35Zm-5.18-6h5.28q1,.05.83.94a5.19,5.19,0,0,1-1,1.77q-.41.42-.78.16t0-.78q1-1.15.47-1.15H290.2a.4.4,0,0,0-.05.16,3.42,3.42,0,0,1-.1.47,6.18,6.18,0,0,0,4,2.61.54.54,0,0,1,.41.63q-.1.47-.62.31a6.16,6.16,0,0,1-4.19-2.61A5.38,5.38,0,0,1,286,316.3q-.57.1-.72-.31t.41-.63q3.05-.83,3.47-3.08h-1.86a.59.59,0,0,1-.21.21,2.64,2.64,0,0,1-.67.78q-.47.37-.78.05t.1-.73a6.37,6.37,0,0,0,1.45-2.09q.21-.47.62-.31a.57.57,0,0,1,.26.73A2.3,2.3,0,0,1,287.82,311.35Zm1.55,8.77a25.3,25.3,0,0,1,4.4,1.83.56.56,0,0,1,.31.73.48.48,0,0,1-.72.16,14.36,14.36,0,0,0-4.3-1.77.48.48,0,0,1-.36-.63A.58.58,0,0,1,289.38,320.12Z" transform="translate(-206.94 -262.93)"/><path class="cls-2" d="M310,316.6a15.34,15.34,0,0,1,.72-5q.26-.57.62-.57t.47.37q-.05.16-.16.52a.47.47,0,0,0-.05.21,13,13,0,0,0-.52,4.49,14.85,14.85,0,0,0,.1,2.61,5.58,5.58,0,0,0,.41,1.77l.05.1a2.8,2.8,0,0,1,.16.57.47.47,0,0,1-.47.42q-.36,0-.62-.63A13.68,13.68,0,0,1,310,316.6Z" transform="translate(-206.94 -262.93)"/><path class="cls-2" d="M329.64,313.33v1h3.21a1,1,0,0,1,1,1v2.56H335a.47.47,0,0,1,.47.52q0,.52-.47.52h-5a12,12,0,0,0,5,2.66q.57.16.52.63a.56.56,0,0,1-.72.37,15.81,15.81,0,0,1-5.64-3.13q-.83,2.19-5.44,3.18-.57.05-.72-.37t.47-.57q4.24-.78,4.87-2.77h-5.07q-.41,0-.47-.52a.51.51,0,0,1,.47-.52h1.09v-2.4a1,1,0,0,1,1.09-1.2h3.26v-1q0-.36.47-.42T329.64,313.33Zm-2.69-2.45v.52h4.61v-.52q0-.42.52-.47a.51.51,0,0,1,.52.47v.52h2.33a.5.5,0,0,1-.05,1h-2.28V313a.51.51,0,0,1-.52.47q-.52-.05-.52-.47v-.63h-4.61v.68a.47.47,0,0,1-.52.47q-.52,0-.52-.47v-.68h-2.54q-.52,0-.52-.47a.56.56,0,0,1,.57-.52h2.49v-.52q0-.42.52-.47A.51.51,0,0,1,326.95,310.88Zm1.71,5.48v-1h-3q-.41.05-.36.42v2.19h3.26Q328.6,317.19,328.66,316.36Zm.88,1.57h3.37v-2.19a.43.43,0,0,0-.36-.42h-2.9v1Q329.59,317.3,329.54,317.92Z" transform="translate(-206.94 -262.93)"/><path class="cls-2" d="M348.8,310.88h9.63q.78-.05.78.94v9.34q.05,1.1-.93,1h-9.42q-.93,0-.88-1v-9.34Q347.87,310.83,348.8,310.88Zm.21,1.57v8.25q-.1.52.57.47h8.08q.57.05.52-.47V312.6q.05-.78-.57-.73h-8.08Q349,311.87,349,312.45Zm1.6.63h6.21q.36.05.41.52t-.41.47h-2.9v1.51h2.64a.51.51,0,0,1,.47.52q-.05.52-.47.52h-2.64V319h3.16a.51.51,0,0,1,.47.52q-.05.52-.47.52h-6.94a.46.46,0,0,1-.52-.52q0-.47.52-.52h2.69v-2.35h-2.07q-.47,0-.47-.52a.47.47,0,0,1,.47-.52h2.07v-1.51h-2.23a.5.5,0,0,1-.57-.47A.56.56,0,0,1,350.61,313.07Zm4.5,4a7.13,7.13,0,0,1,1.09.89.54.54,0,0,1,.05.73.42.42,0,0,1-.67-.05l-1-.84a.45.45,0,0,1-.1-.68A.53.53,0,0,1,355.12,317.09Z" transform="translate(-206.94 -262.93)"/><path class="cls-2" d="M371.94,316.6a14.09,14.09,0,0,1-.78,4.85q-.21.63-.57.63t-.47-.42a2.24,2.24,0,0,1,.1-.57c0-.07.07-.1.1-.1a15.22,15.22,0,0,0,.52-4.38,16.71,16.71,0,0,0-.52-4.49.56.56,0,0,1-.1-.21,1.17,1.17,0,0,1-.1-.52q0-.31.47-.37t.57.57A15.57,15.57,0,0,1,371.94,316.6Z" transform="translate(-206.94 -262.93)"/></svg>